<svg width="654" height="866" viewBox="0 0 654 866" fill="none" xmlns="http://www.w3.org/2000/svg">
<g opacity="0.3">
<mask id="mask0" mask-type="alpha" maskUnits="userSpaceOnUse" x="0" y="713" width="12" height="14">
<path d="M5.65521 726.869C8.77837 726.869 11.3102 723.764 11.3102 719.934C11.3102 716.105 8.77837 713 5.65521 713C2.53206 713 0.000244141 716.105 0.000244141 719.934C0.000244141 723.764 2.53206 726.869 5.65521 726.869Z" fill="url(#paint0_linear)"/>
</mask>
<g mask="url(#mask0)">
<path d="M5.65521 726.869C8.77837 726.869 11.3102 723.764 11.3102 719.934C11.3102 716.105 8.77837 713 5.65521 713C2.53206 713 0.000244141 716.105 0.000244141 719.934C0.000244141 723.764 2.53206 726.869 5.65521 726.869Z" fill="url(#paint1_linear)"/>
</g>
<mask id="mask1" mask-type="alpha" maskUnits="userSpaceOnUse" x="32" y="713" width="13" height="14">
<path d="M38.4067 726.869C41.5298 726.869 44.0617 723.764 44.0617 719.934C44.0617 716.105 41.5298 713 38.4067 713C35.2835 713 32.7517 716.105 32.7517 719.934C32.7517 723.764 35.2835 726.869 38.4067 726.869Z" fill="url(#paint2_linear)"/>
</mask>
<g mask="url(#mask1)">
<path d="M38.4067 726.869C41.5298 726.869 44.0617 723.764 44.0617 719.934C44.0617 716.105 41.5298 713 38.4067 713C35.2835 713 32.7517 716.105 32.7517 719.934C32.7517 723.764 35.2835 726.869 38.4067 726.869Z" fill="url(#paint3_linear)"/>
</g>
<mask id="mask2" mask-type="alpha" maskUnits="userSpaceOnUse" x="65" y="713" width="12" height="14">
<path d="M71.1584 726.869C74.2816 726.869 76.8134 723.764 76.8134 719.934C76.8134 716.105 74.2816 713 71.1584 713C68.0352 713 65.5034 716.105 65.5034 719.934C65.5034 723.764 68.0352 726.869 71.1584 726.869Z" fill="url(#paint4_linear)"/>
</mask>
<g mask="url(#mask2)">
<path d="M71.1584 726.869C74.2816 726.869 76.8134 723.764 76.8134 719.934C76.8134 716.105 74.2816 713 71.1584 713C68.0352 713 65.5034 716.105 65.5034 719.934C65.5034 723.764 68.0352 726.869 71.1584 726.869Z" fill="url(#paint5_linear)"/>
</g>
<mask id="mask3" mask-type="alpha" maskUnits="userSpaceOnUse" x="98" y="713" width="12" height="14">
<path d="M103.91 726.869C107.034 726.869 109.565 723.764 109.565 719.934C109.565 716.105 107.034 713 103.91 713C100.787 713 98.2554 716.105 98.2554 719.934C98.2554 723.764 100.787 726.869 103.91 726.869Z" fill="url(#paint6_linear)"/>
</mask>
<g mask="url(#mask3)">
<path d="M103.91 726.869C107.034 726.869 109.565 723.764 109.565 719.934C109.565 716.105 107.034 713 103.91 713C100.787 713 98.2554 716.105 98.2554 719.934C98.2554 723.764 100.787 726.869 103.91 726.869Z" fill="url(#paint7_linear)"/>
</g>
<mask id="mask4" mask-type="alpha" maskUnits="userSpaceOnUse" x="131" y="713" width="12" height="14">
<path d="M136.662 726.869C139.785 726.869 142.317 723.764 142.317 719.934C142.317 716.105 139.785 713 136.662 713C133.539 713 131.007 716.105 131.007 719.934C131.007 723.764 133.539 726.869 136.662 726.869Z" fill="url(#paint8_linear)"/>
</mask>
<g mask="url(#mask4)">
<path d="M136.662 726.869C139.785 726.869 142.317 723.764 142.317 719.934C142.317 716.105 139.785 713 136.662 713C133.539 713 131.007 716.105 131.007 719.934C131.007 723.764 133.539 726.869 136.662 726.869Z" fill="url(#paint9_linear)"/>
</g>
<mask id="mask5" mask-type="alpha" maskUnits="userSpaceOnUse" x="0" y="747" width="12" height="15">
<path d="M5.65497 761.686C8.77812 761.686 11.3099 758.581 11.3099 754.751C11.3099 750.922 8.77812 747.817 5.65497 747.817C2.53181 747.817 0 750.922 0 754.751C0 758.581 2.53181 761.686 5.65497 761.686Z" fill="url(#paint10_linear)"/>
</mask>
<g mask="url(#mask5)">
<path d="M5.65497 761.686C8.77812 761.686 11.3099 758.581 11.3099 754.751C11.3099 750.922 8.77812 747.817 5.65497 747.817C2.53181 747.817 0 750.922 0 754.751C0 758.581 2.53181 761.686 5.65497 761.686Z" fill="url(#paint11_linear)"/>
</g>
<mask id="mask6" mask-type="alpha" maskUnits="userSpaceOnUse" x="32" y="747" width="13" height="15">
<path d="M38.4067 761.686C41.5298 761.686 44.0617 758.581 44.0617 754.751C44.0617 750.922 41.5298 747.817 38.4067 747.817C35.2835 747.817 32.7517 750.922 32.7517 754.751C32.7517 758.581 35.2835 761.686 38.4067 761.686Z" fill="url(#paint12_linear)"/>
</mask>
<g mask="url(#mask6)">
<path d="M38.4067 761.686C41.5298 761.686 44.0617 758.581 44.0617 754.751C44.0617 750.922 41.5298 747.817 38.4067 747.817C35.2835 747.817 32.7517 750.922 32.7517 754.751C32.7517 758.581 35.2835 761.686 38.4067 761.686Z" fill="url(#paint13_linear)"/>
</g>
<mask id="mask7" mask-type="alpha" maskUnits="userSpaceOnUse" x="65" y="747" width="12" height="15">
<path d="M71.1584 761.686C74.2816 761.686 76.8134 758.581 76.8134 754.751C76.8134 750.922 74.2816 747.817 71.1584 747.817C68.0352 747.817 65.5034 750.922 65.5034 754.751C65.5034 758.581 68.0352 761.686 71.1584 761.686Z" fill="url(#paint14_linear)"/>
</mask>
<g mask="url(#mask7)">
<path d="M71.1584 761.686C74.2816 761.686 76.8134 758.581 76.8134 754.751C76.8134 750.922 74.2816 747.817 71.1584 747.817C68.0352 747.817 65.5034 750.922 65.5034 754.751C65.5034 758.581 68.0352 761.686 71.1584 761.686Z" fill="url(#paint15_linear)"/>
</g>
<mask id="mask8" mask-type="alpha" maskUnits="userSpaceOnUse" x="98" y="747" width="12" height="15">
<path d="M103.91 761.686C107.034 761.686 109.565 758.581 109.565 754.751C109.565 750.922 107.034 747.817 103.91 747.817C100.787 747.817 98.2554 750.922 98.2554 754.751C98.2554 758.581 100.787 761.686 103.91 761.686Z" fill="url(#paint16_linear)"/>
</mask>
<g mask="url(#mask8)">
<path d="M103.91 761.686C107.034 761.686 109.565 758.581 109.565 754.751C109.565 750.922 107.034 747.817 103.91 747.817C100.787 747.817 98.2554 750.922 98.2554 754.751C98.2554 758.581 100.787 761.686 103.91 761.686Z" fill="url(#paint17_linear)"/>
</g>
<mask id="mask9" mask-type="alpha" maskUnits="userSpaceOnUse" x="131" y="747" width="12" height="15">
<path d="M136.662 761.686C139.785 761.686 142.317 758.581 142.317 754.751C142.317 750.922 139.785 747.817 136.662 747.817C133.539 747.817 131.007 750.922 131.007 754.751C131.007 758.581 133.539 761.686 136.662 761.686Z" fill="url(#paint18_linear)"/>
</mask>
<g mask="url(#mask9)">
<path d="M136.662 761.686C139.785 761.686 142.317 758.581 142.317 754.751C142.317 750.922 139.785 747.817 136.662 747.817C133.539 747.817 131.007 750.922 131.007 754.751C131.007 758.581 133.539 761.686 136.662 761.686Z" fill="url(#paint19_linear)"/>
</g>
<mask id="mask10" mask-type="alpha" maskUnits="userSpaceOnUse" x="0" y="782" width="12" height="15">
<path d="M5.65497 796.431C8.77812 796.431 11.3099 793.326 11.3099 789.496C11.3099 785.666 8.77812 782.562 5.65497 782.562C2.53181 782.562 0 785.666 0 789.496C0 793.326 2.53181 796.431 5.65497 796.431Z" fill="url(#paint20_linear)"/>
</mask>
<g mask="url(#mask10)">
<path d="M5.65497 796.431C8.77812 796.431 11.3099 793.326 11.3099 789.496C11.3099 785.666 8.77812 782.562 5.65497 782.562C2.53181 782.562 0 785.666 0 789.496C0 793.326 2.53181 796.431 5.65497 796.431Z" fill="url(#paint21_linear)"/>
</g>
<mask id="mask11" mask-type="alpha" maskUnits="userSpaceOnUse" x="32" y="782" width="13" height="15">
<path d="M38.4067 796.431C41.5298 796.431 44.0617 793.326 44.0617 789.496C44.0617 785.666 41.5298 782.562 38.4067 782.562C35.2835 782.562 32.7517 785.666 32.7517 789.496C32.7517 793.326 35.2835 796.431 38.4067 796.431Z" fill="url(#paint22_linear)"/>
</mask>
<g mask="url(#mask11)">
<path d="M38.4067 796.431C41.5298 796.431 44.0617 793.326 44.0617 789.496C44.0617 785.666 41.5298 782.562 38.4067 782.562C35.2835 782.562 32.7517 785.666 32.7517 789.496C32.7517 793.326 35.2835 796.431 38.4067 796.431Z" fill="url(#paint23_linear)"/>
</g>
<mask id="mask12" mask-type="alpha" maskUnits="userSpaceOnUse" x="65" y="782" width="12" height="15">
<path d="M71.1584 796.431C74.2816 796.431 76.8134 793.326 76.8134 789.496C76.8134 785.666 74.2816 782.562 71.1584 782.562C68.0352 782.562 65.5034 785.666 65.5034 789.496C65.5034 793.326 68.0352 796.431 71.1584 796.431Z" fill="url(#paint24_linear)"/>
</mask>
<g mask="url(#mask12)">
<path d="M71.1584 796.431C74.2816 796.431 76.8134 793.326 76.8134 789.496C76.8134 785.666 74.2816 782.562 71.1584 782.562C68.0352 782.562 65.5034 785.666 65.5034 789.496C65.5034 793.326 68.0352 796.431 71.1584 796.431Z" fill="url(#paint25_linear)"/>
</g>
<mask id="mask13" mask-type="alpha" maskUnits="userSpaceOnUse" x="98" y="782" width="12" height="15">
<path d="M103.91 796.431C107.034 796.431 109.565 793.326 109.565 789.496C109.565 785.666 107.034 782.562 103.91 782.562C100.787 782.562 98.2554 785.666 98.2554 789.496C98.2554 793.326 100.787 796.431 103.91 796.431Z" fill="url(#paint26_linear)"/>
</mask>
<g mask="url(#mask13)">
<path d="M103.91 796.431C107.034 796.431 109.565 793.326 109.565 789.496C109.565 785.666 107.034 782.562 103.91 782.562C100.787 782.562 98.2554 785.666 98.2554 789.496C98.2554 793.326 100.787 796.431 103.91 796.431Z" fill="url(#paint27_linear)"/>
</g>
<mask id="mask14" mask-type="alpha" maskUnits="userSpaceOnUse" x="131" y="782" width="12" height="15">
<path d="M136.662 796.431C139.785 796.431 142.317 793.326 142.317 789.496C142.317 785.666 139.785 782.562 136.662 782.562C133.539 782.562 131.007 785.666 131.007 789.496C131.007 793.326 133.539 796.431 136.662 796.431Z" fill="url(#paint28_linear)"/>
</mask>
<g mask="url(#mask14)">
<path d="M136.662 796.431C139.785 796.431 142.317 793.326 142.317 789.496C142.317 785.666 139.785 782.562 136.662 782.562C133.539 782.562 131.007 785.666 131.007 789.496C131.007 793.326 133.539 796.431 136.662 796.431Z" fill="url(#paint29_linear)"/>
</g>
<mask id="mask15" mask-type="alpha" maskUnits="userSpaceOnUse" x="0" y="817" width="12" height="15">
<path d="M5.65497 831.248C8.77812 831.248 11.3099 828.143 11.3099 824.313C11.3099 820.483 8.77812 817.379 5.65497 817.379C2.53181 817.379 0 820.483 0 824.313C0 828.143 2.53181 831.248 5.65497 831.248Z" fill="url(#paint30_linear)"/>
</mask>
<g mask="url(#mask15)">
<path d="M5.65497 831.248C8.77812 831.248 11.3099 828.143 11.3099 824.313C11.3099 820.483 8.77812 817.379 5.65497 817.379C2.53181 817.379 0 820.483 0 824.313C0 828.143 2.53181 831.248 5.65497 831.248Z" fill="url(#paint31_linear)"/>
</g>
<mask id="mask16" mask-type="alpha" maskUnits="userSpaceOnUse" x="32" y="817" width="13" height="15">
<path d="M38.4067 831.248C41.5298 831.248 44.0617 828.143 44.0617 824.313C44.0617 820.483 41.5298 817.379 38.4067 817.379C35.2835 817.379 32.7517 820.483 32.7517 824.313C32.7517 828.143 35.2835 831.248 38.4067 831.248Z" fill="url(#paint32_linear)"/>
</mask>
<g mask="url(#mask16)">
<path d="M38.4067 831.248C41.5298 831.248 44.0617 828.143 44.0617 824.313C44.0617 820.483 41.5298 817.379 38.4067 817.379C35.2835 817.379 32.7517 820.483 32.7517 824.313C32.7517 828.143 35.2835 831.248 38.4067 831.248Z" fill="url(#paint33_linear)"/>
</g>
<mask id="mask17" mask-type="alpha" maskUnits="userSpaceOnUse" x="65" y="817" width="12" height="15">
<path d="M71.1584 831.248C74.2816 831.248 76.8134 828.143 76.8134 824.313C76.8134 820.483 74.2816 817.379 71.1584 817.379C68.0352 817.379 65.5034 820.483 65.5034 824.313C65.5034 828.143 68.0352 831.248 71.1584 831.248Z" fill="url(#paint34_linear)"/>
</mask>
<g mask="url(#mask17)">
<path d="M71.1584 831.248C74.2816 831.248 76.8134 828.143 76.8134 824.313C76.8134 820.483 74.2816 817.379 71.1584 817.379C68.0352 817.379 65.5034 820.483 65.5034 824.313C65.5034 828.143 68.0352 831.248 71.1584 831.248Z" fill="url(#paint35_linear)"/>
</g>
<mask id="mask18" mask-type="alpha" maskUnits="userSpaceOnUse" x="98" y="817" width="12" height="15">
<path d="M103.91 831.248C107.034 831.248 109.565 828.143 109.565 824.313C109.565 820.483 107.034 817.379 103.91 817.379C100.787 817.379 98.2554 820.483 98.2554 824.313C98.2554 828.143 100.787 831.248 103.91 831.248Z" fill="url(#paint36_linear)"/>
</mask>
<g mask="url(#mask18)">
<path d="M103.91 831.248C107.034 831.248 109.565 828.143 109.565 824.313C109.565 820.483 107.034 817.379 103.91 817.379C100.787 817.379 98.2554 820.483 98.2554 824.313C98.2554 828.143 100.787 831.248 103.91 831.248Z" fill="url(#paint37_linear)"/>
</g>
<mask id="mask19" mask-type="alpha" maskUnits="userSpaceOnUse" x="131" y="817" width="12" height="15">
<path d="M136.662 831.248C139.785 831.248 142.317 828.143 142.317 824.313C142.317 820.483 139.785 817.379 136.662 817.379C133.539 817.379 131.007 820.483 131.007 824.313C131.007 828.143 133.539 831.248 136.662 831.248Z" fill="url(#paint38_linear)"/>
</mask>
<g mask="url(#mask19)">
<path d="M136.662 831.248C139.785 831.248 142.317 828.143 142.317 824.313C142.317 820.483 139.785 817.379 136.662 817.379C133.539 817.379 131.007 820.483 131.007 824.313C131.007 828.143 133.539 831.248 136.662 831.248Z" fill="url(#paint39_linear)"/>
</g>
<mask id="mask20" mask-type="alpha" maskUnits="userSpaceOnUse" x="0" y="852" width="12" height="14">
<path d="M5.65497 865.993C8.77812 865.993 11.3099 862.888 11.3099 859.058C11.3099 855.228 8.77812 852.124 5.65497 852.124C2.53181 852.124 0 855.228 0 859.058C0 862.888 2.53181 865.993 5.65497 865.993Z" fill="url(#paint40_linear)"/>
</mask>
<g mask="url(#mask20)">
<path d="M5.65497 865.993C8.77812 865.993 11.3099 862.888 11.3099 859.058C11.3099 855.228 8.77812 852.124 5.65497 852.124C2.53181 852.124 0 855.228 0 859.058C0 862.888 2.53181 865.993 5.65497 865.993Z" fill="url(#paint41_linear)"/>
</g>
<mask id="mask21" mask-type="alpha" maskUnits="userSpaceOnUse" x="32" y="852" width="13" height="14">
<path d="M38.4067 865.993C41.5298 865.993 44.0617 862.888 44.0617 859.058C44.0617 855.228 41.5298 852.124 38.4067 852.124C35.2835 852.124 32.7517 855.228 32.7517 859.058C32.7517 862.888 35.2835 865.993 38.4067 865.993Z" fill="url(#paint42_linear)"/>
</mask>
<g mask="url(#mask21)">
<path d="M38.4067 865.993C41.5298 865.993 44.0617 862.888 44.0617 859.058C44.0617 855.228 41.5298 852.124 38.4067 852.124C35.2835 852.124 32.7517 855.228 32.7517 859.058C32.7517 862.888 35.2835 865.993 38.4067 865.993Z" fill="url(#paint43_linear)"/>
</g>
<mask id="mask22" mask-type="alpha" maskUnits="userSpaceOnUse" x="65" y="852" width="12" height="14">
<path d="M71.1584 865.993C74.2816 865.993 76.8134 862.888 76.8134 859.058C76.8134 855.228 74.2816 852.124 71.1584 852.124C68.0352 852.124 65.5034 855.228 65.5034 859.058C65.5034 862.888 68.0352 865.993 71.1584 865.993Z" fill="url(#paint44_linear)"/>
</mask>
<g mask="url(#mask22)">
<path d="M71.1584 865.993C74.2816 865.993 76.8134 862.888 76.8134 859.058C76.8134 855.228 74.2816 852.124 71.1584 852.124C68.0352 852.124 65.5034 855.228 65.5034 859.058C65.5034 862.888 68.0352 865.993 71.1584 865.993Z" fill="url(#paint45_linear)"/>
</g>
<mask id="mask23" mask-type="alpha" maskUnits="userSpaceOnUse" x="98" y="852" width="12" height="14">
<path d="M103.91 865.993C107.034 865.993 109.565 862.888 109.565 859.058C109.565 855.228 107.034 852.124 103.91 852.124C100.787 852.124 98.2554 855.228 98.2554 859.058C98.2554 862.888 100.787 865.993 103.91 865.993Z" fill="url(#paint46_linear)"/>
</mask>
<g mask="url(#mask23)">
<path d="M103.91 865.993C107.034 865.993 109.565 862.888 109.565 859.058C109.565 855.228 107.034 852.124 103.91 852.124C100.787 852.124 98.2554 855.228 98.2554 859.058C98.2554 862.888 100.787 865.993 103.91 865.993Z" fill="url(#paint47_linear)"/>
</g>
<mask id="mask24" mask-type="alpha" maskUnits="userSpaceOnUse" x="131" y="852" width="12" height="14">
<path d="M136.662 865.993C139.785 865.993 142.317 862.888 142.317 859.058C142.317 855.228 139.785 852.124 136.662 852.124C133.539 852.124 131.007 855.228 131.007 859.058C131.007 862.888 133.539 865.993 136.662 865.993Z" fill="url(#paint48_linear)"/>
</mask>
<g mask="url(#mask24)">
<path d="M136.662 865.993C139.785 865.993 142.317 862.888 142.317 859.058C142.317 855.228 139.785 852.124 136.662 852.124C133.539 852.124 131.007 855.228 131.007 859.058C131.007 862.888 133.539 865.993 136.662 865.993Z" fill="url(#paint49_linear)"/>
</g>
</g>
<g opacity="0.3">
<mask id="mask25" mask-type="alpha" maskUnits="userSpaceOnUse" x="511" y="0" width="12" height="14">
<path d="M516.655 13.8691C519.778 13.8691 522.31 10.7643 522.31 6.93448C522.31 3.10466 519.778 0 516.655 0C513.532 0 511 3.10466 511 6.93448C511 10.7643 513.532 13.8691 516.655 13.8691Z" fill="url(#paint50_linear)"/>
</mask>
<g mask="url(#mask25)">
<path d="M516.655 13.8691C519.778 13.8691 522.31 10.7643 522.31 6.93448C522.31 3.10466 519.778 0 516.655 0C513.532 0 511 3.10466 511 6.93448C511 10.7643 513.532 13.8691 516.655 13.8691Z" fill="url(#paint51_linear)"/>
</g>
<mask id="mask26" mask-type="alpha" maskUnits="userSpaceOnUse" x="543" y="0" width="13" height="14">
<path d="M549.407 13.8691C552.53 13.8691 555.062 10.7643 555.062 6.93448C555.062 3.10466 552.53 0 549.407 0C546.284 0 543.752 3.10466 543.752 6.93448C543.752 10.7643 546.284 13.8691 549.407 13.8691Z" fill="url(#paint52_linear)"/>
</mask>
<g mask="url(#mask26)">
<path d="M549.407 13.8691C552.53 13.8691 555.062 10.7643 555.062 6.93448C555.062 3.10466 552.53 0 549.407 0C546.284 0 543.752 3.10466 543.752 6.93448C543.752 10.7643 546.284 13.8691 549.407 13.8691Z" fill="url(#paint53_linear)"/>
</g>
<mask id="mask27" mask-type="alpha" maskUnits="userSpaceOnUse" x="576" y="0" width="12" height="14">
<path d="M582.158 13.8691C585.282 13.8691 587.813 10.7643 587.813 6.93448C587.813 3.10466 585.282 0 582.158 0C579.035 0 576.503 3.10466 576.503 6.93448C576.503 10.7643 579.035 13.8691 582.158 13.8691Z" fill="url(#paint54_linear)"/>
</mask>
<g mask="url(#mask27)">
<path d="M582.158 13.8691C585.282 13.8691 587.813 10.7643 587.813 6.93448C587.813 3.10466 585.282 0 582.158 0C579.035 0 576.503 3.10466 576.503 6.93448C576.503 10.7643 579.035 13.8691 582.158 13.8691Z" fill="url(#paint55_linear)"/>
</g>
<mask id="mask28" mask-type="alpha" maskUnits="userSpaceOnUse" x="609" y="0" width="12" height="14">
<path d="M614.91 13.8691C618.034 13.8691 620.565 10.7643 620.565 6.93448C620.565 3.10466 618.034 0 614.91 0C611.787 0 609.255 3.10466 609.255 6.93448C609.255 10.7643 611.787 13.8691 614.91 13.8691Z" fill="url(#paint56_linear)"/>
</mask>
<g mask="url(#mask28)">
<path d="M614.91 13.8691C618.034 13.8691 620.565 10.7643 620.565 6.93448C620.565 3.10466 618.034 0 614.91 0C611.787 0 609.255 3.10466 609.255 6.93448C609.255 10.7643 611.787 13.8691 614.91 13.8691Z" fill="url(#paint57_linear)"/>
</g>
<mask id="mask29" mask-type="alpha" maskUnits="userSpaceOnUse" x="642" y="0" width="12" height="14">
<path d="M647.662 13.8691C650.785 13.8691 653.317 10.7643 653.317 6.93448C653.317 3.10466 650.785 0 647.662 0C644.539 0 642.007 3.10466 642.007 6.93448C642.007 10.7643 644.539 13.8691 647.662 13.8691Z" fill="url(#paint58_linear)"/>
</mask>
<g mask="url(#mask29)">
<path d="M647.662 13.8691C650.785 13.8691 653.317 10.7643 653.317 6.93448C653.317 3.10466 650.785 0 647.662 0C644.539 0 642.007 3.10466 642.007 6.93448C642.007 10.7643 644.539 13.8691 647.662 13.8691Z" fill="url(#paint59_linear)"/>
</g>
<mask id="mask30" mask-type="alpha" maskUnits="userSpaceOnUse" x="511" y="34" width="12" height="15">
<path d="M516.655 48.686C519.778 48.686 522.31 45.5813 522.31 41.7515C522.31 37.9217 519.778 34.8171 516.655 34.8171C513.532 34.8171 511 37.9217 511 41.7515C511 45.5813 513.532 48.686 516.655 48.686Z" fill="url(#paint60_linear)"/>
</mask>
<g mask="url(#mask30)">
<path d="M516.655 48.686C519.778 48.686 522.31 45.5813 522.31 41.7515C522.31 37.9217 519.778 34.8171 516.655 34.8171C513.532 34.8171 511 37.9217 511 41.7515C511 45.5813 513.532 48.686 516.655 48.686Z" fill="url(#paint61_linear)"/>
</g>
<mask id="mask31" mask-type="alpha" maskUnits="userSpaceOnUse" x="543" y="34" width="13" height="15">
<path d="M549.407 48.686C552.53 48.686 555.062 45.5813 555.062 41.7515C555.062 37.9217 552.53 34.8171 549.407 34.8171C546.284 34.8171 543.752 37.9217 543.752 41.7515C543.752 45.5813 546.284 48.686 549.407 48.686Z" fill="url(#paint62_linear)"/>
</mask>
<g mask="url(#mask31)">
<path d="M549.407 48.686C552.53 48.686 555.062 45.5813 555.062 41.7515C555.062 37.9217 552.53 34.8171 549.407 34.8171C546.284 34.8171 543.752 37.9217 543.752 41.7515C543.752 45.5813 546.284 48.686 549.407 48.686Z" fill="url(#paint63_linear)"/>
</g>
<mask id="mask32" mask-type="alpha" maskUnits="userSpaceOnUse" x="576" y="34" width="12" height="15">
<path d="M582.158 48.686C585.282 48.686 587.813 45.5813 587.813 41.7515C587.813 37.9217 585.282 34.8171 582.158 34.8171C579.035 34.8171 576.503 37.9217 576.503 41.7515C576.503 45.5813 579.035 48.686 582.158 48.686Z" fill="url(#paint64_linear)"/>
</mask>
<g mask="url(#mask32)">
<path d="M582.158 48.686C585.282 48.686 587.813 45.5813 587.813 41.7515C587.813 37.9217 585.282 34.8171 582.158 34.8171C579.035 34.8171 576.503 37.9217 576.503 41.7515C576.503 45.5813 579.035 48.686 582.158 48.686Z" fill="url(#paint65_linear)"/>
</g>
<mask id="mask33" mask-type="alpha" maskUnits="userSpaceOnUse" x="609" y="34" width="12" height="15">
<path d="M614.91 48.686C618.034 48.686 620.565 45.5813 620.565 41.7515C620.565 37.9217 618.034 34.8171 614.91 34.8171C611.787 34.8171 609.255 37.9217 609.255 41.7515C609.255 45.5813 611.787 48.686 614.91 48.686Z" fill="url(#paint66_linear)"/>
</mask>
<g mask="url(#mask33)">
<path d="M614.91 48.686C618.034 48.686 620.565 45.5813 620.565 41.7515C620.565 37.9217 618.034 34.8171 614.91 34.8171C611.787 34.8171 609.255 37.9217 609.255 41.7515C609.255 45.5813 611.787 48.686 614.91 48.686Z" fill="url(#paint67_linear)"/>
</g>
<mask id="mask34" mask-type="alpha" maskUnits="userSpaceOnUse" x="642" y="34" width="12" height="15">
<path d="M647.662 48.686C650.785 48.686 653.317 45.5813 653.317 41.7515C653.317 37.9217 650.785 34.8171 647.662 34.8171C644.539 34.8171 642.007 37.9217 642.007 41.7515C642.007 45.5813 644.539 48.686 647.662 48.686Z" fill="url(#paint68_linear)"/>
</mask>
<g mask="url(#mask34)">
<path d="M647.662 48.686C650.785 48.686 653.317 45.5813 653.317 41.7515C653.317 37.9217 650.785 34.8171 647.662 34.8171C644.539 34.8171 642.007 37.9217 642.007 41.7515C642.007 45.5813 644.539 48.686 647.662 48.686Z" fill="url(#paint69_linear)"/>
</g>
<mask id="mask35" mask-type="alpha" maskUnits="userSpaceOnUse" x="511" y="69" width="12" height="15">
<path d="M516.655 83.4308C519.778 83.4308 522.31 80.3261 522.31 76.4963C522.31 72.6665 519.778 69.5618 516.655 69.5618C513.532 69.5618 511 72.6665 511 76.4963C511 80.3261 513.532 83.4308 516.655 83.4308Z" fill="url(#paint70_linear)"/>
</mask>
<g mask="url(#mask35)">
<path d="M516.655 83.4308C519.778 83.4308 522.31 80.3261 522.31 76.4963C522.31 72.6665 519.778 69.5618 516.655 69.5618C513.532 69.5618 511 72.6665 511 76.4963C511 80.3261 513.532 83.4308 516.655 83.4308Z" fill="url(#paint71_linear)"/>
</g>
<mask id="mask36" mask-type="alpha" maskUnits="userSpaceOnUse" x="543" y="69" width="13" height="15">
<path d="M549.407 83.4308C552.53 83.4308 555.062 80.3261 555.062 76.4963C555.062 72.6665 552.53 69.5618 549.407 69.5618C546.284 69.5618 543.752 72.6665 543.752 76.4963C543.752 80.3261 546.284 83.4308 549.407 83.4308Z" fill="url(#paint72_linear)"/>
</mask>
<g mask="url(#mask36)">
<path d="M549.407 83.4308C552.53 83.4308 555.062 80.3261 555.062 76.4963C555.062 72.6665 552.53 69.5618 549.407 69.5618C546.284 69.5618 543.752 72.6665 543.752 76.4963C543.752 80.3261 546.284 83.4308 549.407 83.4308Z" fill="url(#paint73_linear)"/>
</g>
<mask id="mask37" mask-type="alpha" maskUnits="userSpaceOnUse" x="576" y="69" width="12" height="15">
<path d="M582.158 83.4308C585.282 83.4308 587.813 80.3261 587.813 76.4963C587.813 72.6665 585.282 69.5618 582.158 69.5618C579.035 69.5618 576.503 72.6665 576.503 76.4963C576.503 80.3261 579.035 83.4308 582.158 83.4308Z" fill="url(#paint74_linear)"/>
</mask>
<g mask="url(#mask37)">
<path d="M582.158 83.4308C585.282 83.4308 587.813 80.3261 587.813 76.4963C587.813 72.6665 585.282 69.5618 582.158 69.5618C579.035 69.5618 576.503 72.6665 576.503 76.4963C576.503 80.3261 579.035 83.4308 582.158 83.4308Z" fill="url(#paint75_linear)"/>
</g>
<mask id="mask38" mask-type="alpha" maskUnits="userSpaceOnUse" x="609" y="69" width="12" height="15">
<path d="M614.91 83.4308C618.034 83.4308 620.565 80.3261 620.565 76.4963C620.565 72.6665 618.034 69.5618 614.91 69.5618C611.787 69.5618 609.255 72.6665 609.255 76.4963C609.255 80.3261 611.787 83.4308 614.91 83.4308Z" fill="url(#paint76_linear)"/>
</mask>
<g mask="url(#mask38)">
<path d="M614.91 83.4308C618.034 83.4308 620.565 80.3261 620.565 76.4963C620.565 72.6665 618.034 69.5618 614.91 69.5618C611.787 69.5618 609.255 72.6665 609.255 76.4963C609.255 80.3261 611.787 83.4308 614.91 83.4308Z" fill="url(#paint77_linear)"/>
</g>
<mask id="mask39" mask-type="alpha" maskUnits="userSpaceOnUse" x="642" y="69" width="12" height="15">
<path d="M647.662 83.4308C650.785 83.4308 653.317 80.3261 653.317 76.4963C653.317 72.6665 650.785 69.5618 647.662 69.5618C644.539 69.5618 642.007 72.6665 642.007 76.4963C642.007 80.3261 644.539 83.4308 647.662 83.4308Z" fill="url(#paint78_linear)"/>
</mask>
<g mask="url(#mask39)">
<path d="M647.662 83.4308C650.785 83.4308 653.317 80.3261 653.317 76.4963C653.317 72.6665 650.785 69.5618 647.662 69.5618C644.539 69.5618 642.007 72.6665 642.007 76.4963C642.007 80.3261 644.539 83.4308 647.662 83.4308Z" fill="url(#paint79_linear)"/>
</g>
<mask id="mask40" mask-type="alpha" maskUnits="userSpaceOnUse" x="511" y="104" width="12" height="15">
<path d="M516.655 118.248C519.778 118.248 522.31 115.143 522.31 111.313C522.31 107.483 519.778 104.379 516.655 104.379C513.532 104.379 511 107.483 511 111.313C511 115.143 513.532 118.248 516.655 118.248Z" fill="url(#paint80_linear)"/>
</mask>
<g mask="url(#mask40)">
<path d="M516.655 118.248C519.778 118.248 522.31 115.143 522.31 111.313C522.31 107.483 519.778 104.379 516.655 104.379C513.532 104.379 511 107.483 511 111.313C511 115.143 513.532 118.248 516.655 118.248Z" fill="url(#paint81_linear)"/>
</g>
<mask id="mask41" mask-type="alpha" maskUnits="userSpaceOnUse" x="543" y="104" width="13" height="15">
<path d="M549.407 118.248C552.53 118.248 555.062 115.143 555.062 111.313C555.062 107.483 552.53 104.379 549.407 104.379C546.284 104.379 543.752 107.483 543.752 111.313C543.752 115.143 546.284 118.248 549.407 118.248Z" fill="url(#paint82_linear)"/>
</mask>
<g mask="url(#mask41)">
<path d="M549.407 118.248C552.53 118.248 555.062 115.143 555.062 111.313C555.062 107.483 552.53 104.379 549.407 104.379C546.284 104.379 543.752 107.483 543.752 111.313C543.752 115.143 546.284 118.248 549.407 118.248Z" fill="url(#paint83_linear)"/>
</g>
<mask id="mask42" mask-type="alpha" maskUnits="userSpaceOnUse" x="576" y="104" width="12" height="15">
<path d="M582.158 118.248C585.282 118.248 587.813 115.143 587.813 111.313C587.813 107.483 585.282 104.379 582.158 104.379C579.035 104.379 576.503 107.483 576.503 111.313C576.503 115.143 579.035 118.248 582.158 118.248Z" fill="url(#paint84_linear)"/>
</mask>
<g mask="url(#mask42)">
<path d="M582.158 118.248C585.282 118.248 587.813 115.143 587.813 111.313C587.813 107.483 585.282 104.379 582.158 104.379C579.035 104.379 576.503 107.483 576.503 111.313C576.503 115.143 579.035 118.248 582.158 118.248Z" fill="url(#paint85_linear)"/>
</g>
<mask id="mask43" mask-type="alpha" maskUnits="userSpaceOnUse" x="609" y="104" width="12" height="15">
<path d="M614.91 118.248C618.034 118.248 620.565 115.143 620.565 111.313C620.565 107.483 618.034 104.379 614.91 104.379C611.787 104.379 609.255 107.483 609.255 111.313C609.255 115.143 611.787 118.248 614.91 118.248Z" fill="url(#paint86_linear)"/>
</mask>
<g mask="url(#mask43)">
<path d="M614.91 118.248C618.034 118.248 620.565 115.143 620.565 111.313C620.565 107.483 618.034 104.379 614.91 104.379C611.787 104.379 609.255 107.483 609.255 111.313C609.255 115.143 611.787 118.248 614.91 118.248Z" fill="url(#paint87_linear)"/>
</g>
<mask id="mask44" mask-type="alpha" maskUnits="userSpaceOnUse" x="642" y="104" width="12" height="15">
<path d="M647.662 118.248C650.785 118.248 653.317 115.143 653.317 111.313C653.317 107.483 650.785 104.379 647.662 104.379C644.539 104.379 642.007 107.483 642.007 111.313C642.007 115.143 644.539 118.248 647.662 118.248Z" fill="url(#paint88_linear)"/>
</mask>
<g mask="url(#mask44)">
<path d="M647.662 118.248C650.785 118.248 653.317 115.143 653.317 111.313C653.317 107.483 650.785 104.379 647.662 104.379C644.539 104.379 642.007 107.483 642.007 111.313C642.007 115.143 644.539 118.248 647.662 118.248Z" fill="url(#paint89_linear)"/>
</g>
<mask id="mask45" mask-type="alpha" maskUnits="userSpaceOnUse" x="511" y="139" width="12" height="14">
<path d="M516.655 152.993C519.778 152.993 522.31 149.888 522.31 146.058C522.31 142.228 519.778 139.124 516.655 139.124C513.532 139.124 511 142.228 511 146.058C511 149.888 513.532 152.993 516.655 152.993Z" fill="url(#paint90_linear)"/>
</mask>
<g mask="url(#mask45)">
<path d="M516.655 152.993C519.778 152.993 522.31 149.888 522.31 146.058C522.31 142.228 519.778 139.124 516.655 139.124C513.532 139.124 511 142.228 511 146.058C511 149.888 513.532 152.993 516.655 152.993Z" fill="url(#paint91_linear)"/>
</g>
<mask id="mask46" mask-type="alpha" maskUnits="userSpaceOnUse" x="543" y="139" width="13" height="14">
<path d="M549.407 152.993C552.53 152.993 555.062 149.888 555.062 146.058C555.062 142.228 552.53 139.124 549.407 139.124C546.284 139.124 543.752 142.228 543.752 146.058C543.752 149.888 546.284 152.993 549.407 152.993Z" fill="url(#paint92_linear)"/>
</mask>
<g mask="url(#mask46)">
<path d="M549.407 152.993C552.53 152.993 555.062 149.888 555.062 146.058C555.062 142.228 552.53 139.124 549.407 139.124C546.284 139.124 543.752 142.228 543.752 146.058C543.752 149.888 546.284 152.993 549.407 152.993Z" fill="url(#paint93_linear)"/>
</g>
<mask id="mask47" mask-type="alpha" maskUnits="userSpaceOnUse" x="576" y="139" width="12" height="14">
<path d="M582.158 152.993C585.282 152.993 587.813 149.888 587.813 146.058C587.813 142.228 585.282 139.124 582.158 139.124C579.035 139.124 576.503 142.228 576.503 146.058C576.503 149.888 579.035 152.993 582.158 152.993Z" fill="url(#paint94_linear)"/>
</mask>
<g mask="url(#mask47)">
<path d="M582.158 152.993C585.282 152.993 587.813 149.888 587.813 146.058C587.813 142.228 585.282 139.124 582.158 139.124C579.035 139.124 576.503 142.228 576.503 146.058C576.503 149.888 579.035 152.993 582.158 152.993Z" fill="url(#paint95_linear)"/>
</g>
<mask id="mask48" mask-type="alpha" maskUnits="userSpaceOnUse" x="609" y="139" width="12" height="14">
<path d="M614.91 152.993C618.034 152.993 620.565 149.888 620.565 146.058C620.565 142.228 618.034 139.124 614.91 139.124C611.787 139.124 609.255 142.228 609.255 146.058C609.255 149.888 611.787 152.993 614.91 152.993Z" fill="url(#paint96_linear)"/>
</mask>
<g mask="url(#mask48)">
<path d="M614.91 152.993C618.034 152.993 620.565 149.888 620.565 146.058C620.565 142.228 618.034 139.124 614.91 139.124C611.787 139.124 609.255 142.228 609.255 146.058C609.255 149.888 611.787 152.993 614.91 152.993Z" fill="url(#paint97_linear)"/>
</g>
<mask id="mask49" mask-type="alpha" maskUnits="userSpaceOnUse" x="642" y="139" width="12" height="14">
<path d="M647.662 152.993C650.785 152.993 653.317 149.888 653.317 146.058C653.317 142.228 650.785 139.124 647.662 139.124C644.539 139.124 642.007 142.228 642.007 146.058C642.007 149.888 644.539 152.993 647.662 152.993Z" fill="url(#paint98_linear)"/>
</mask>
<g mask="url(#mask49)">
<path d="M647.662 152.993C650.785 152.993 653.317 149.888 653.317 146.058C653.317 142.228 650.785 139.124 647.662 139.124C644.539 139.124 642.007 142.228 642.007 146.058C642.007 149.888 644.539 152.993 647.662 152.993Z" fill="url(#paint99_linear)"/>
</g>
</g>
<defs>
<linearGradient id="paint0_linear" x1="59.4834" y1="887.457" x2="-49.8614" y2="661.105" gradientUnits="userSpaceOnUse">
<stop/>
<stop offset="1" stop-color="white"/>
</linearGradient>
<linearGradient id="paint1_linear" x1="59.4834" y1="887.457" x2="-49.8614" y2="661.105" gradientUnits="userSpaceOnUse">
<stop stop-color="#97C3F9"/>
<stop offset="1" stop-color="#93C1F9"/>
</linearGradient>
<linearGradient id="paint2_linear" x1="87.8257" y1="873.765" x2="-21.519" y2="647.414" gradientUnits="userSpaceOnUse">
<stop/>
<stop offset="1" stop-color="white"/>
</linearGradient>
<linearGradient id="paint3_linear" x1="87.8257" y1="873.765" x2="-21.519" y2="647.414" gradientUnits="userSpaceOnUse">
<stop stop-color="#97C3F9"/>
<stop offset="1" stop-color="#93C1F9"/>
</linearGradient>
<linearGradient id="paint4_linear" x1="116.168" y1="860.074" x2="6.82353" y2="633.723" gradientUnits="userSpaceOnUse">
<stop/>
<stop offset="1" stop-color="white"/>
</linearGradient>
<linearGradient id="paint5_linear" x1="116.168" y1="860.074" x2="6.82353" y2="633.723" gradientUnits="userSpaceOnUse">
<stop stop-color="#97C3F9"/>
<stop offset="1" stop-color="#93C1F9"/>
</linearGradient>
<linearGradient id="paint6_linear" x1="144.511" y1="846.382" x2="35.1659" y2="620.031" gradientUnits="userSpaceOnUse">
<stop/>
<stop offset="1" stop-color="white"/>
</linearGradient>
<linearGradient id="paint7_linear" x1="144.511" y1="846.382" x2="35.1659" y2="620.031" gradientUnits="userSpaceOnUse">
<stop stop-color="#97C3F9"/>
<stop offset="1" stop-color="#93C1F9"/>
</linearGradient>
<linearGradient id="paint8_linear" x1="172.853" y1="832.691" x2="63.508" y2="606.339" gradientUnits="userSpaceOnUse">
<stop/>
<stop offset="1" stop-color="white"/>
</linearGradient>
<linearGradient id="paint9_linear" x1="172.853" y1="832.691" x2="63.508" y2="606.339" gradientUnits="userSpaceOnUse">
<stop stop-color="#97C3F9"/>
<stop offset="1" stop-color="#93C1F9"/>
</linearGradient>
<linearGradient id="paint10_linear" x1="49.8114" y1="892.128" x2="-59.5316" y2="665.778" gradientUnits="userSpaceOnUse">
<stop/>
<stop offset="1" stop-color="white"/>
</linearGradient>
<linearGradient id="paint11_linear" x1="49.8114" y1="892.128" x2="-59.5316" y2="665.778" gradientUnits="userSpaceOnUse">
<stop stop-color="#97C3F9"/>
<stop offset="1" stop-color="#93C1F9"/>
</linearGradient>
<linearGradient id="paint12_linear" x1="78.1537" y1="878.436" x2="-31.1892" y2="652.086" gradientUnits="userSpaceOnUse">
<stop/>
<stop offset="1" stop-color="white"/>
</linearGradient>
<linearGradient id="paint13_linear" x1="78.1537" y1="878.436" x2="-31.1892" y2="652.086" gradientUnits="userSpaceOnUse">
<stop stop-color="#97C3F9"/>
<stop offset="1" stop-color="#93C1F9"/>
</linearGradient>
<linearGradient id="paint14_linear" x1="106.496" y1="864.745" x2="-2.84684" y2="638.395" gradientUnits="userSpaceOnUse">
<stop/>
<stop offset="1" stop-color="white"/>
</linearGradient>
<linearGradient id="paint15_linear" x1="106.496" y1="864.745" x2="-2.84684" y2="638.395" gradientUnits="userSpaceOnUse">
<stop stop-color="#97C3F9"/>
<stop offset="1" stop-color="#93C1F9"/>
</linearGradient>
<linearGradient id="paint16_linear" x1="134.839" y1="851.053" x2="25.4957" y2="624.703" gradientUnits="userSpaceOnUse">
<stop/>
<stop offset="1" stop-color="white"/>
</linearGradient>
<linearGradient id="paint17_linear" x1="134.839" y1="851.053" x2="25.4957" y2="624.703" gradientUnits="userSpaceOnUse">
<stop stop-color="#97C3F9"/>
<stop offset="1" stop-color="#93C1F9"/>
</linearGradient>
<linearGradient id="paint18_linear" x1="163.181" y1="837.362" x2="53.8378" y2="611.012" gradientUnits="userSpaceOnUse">
<stop/>
<stop offset="1" stop-color="white"/>
</linearGradient>
<linearGradient id="paint19_linear" x1="163.181" y1="837.362" x2="53.8378" y2="611.012" gradientUnits="userSpaceOnUse">
<stop stop-color="#97C3F9"/>
<stop offset="1" stop-color="#93C1F9"/>
</linearGradient>
<linearGradient id="paint20_linear" x1="40.1393" y1="896.801" x2="-69.2055" y2="670.45" gradientUnits="userSpaceOnUse">
<stop/>
<stop offset="1" stop-color="white"/>
</linearGradient>
<linearGradient id="paint21_linear" x1="40.1393" y1="896.801" x2="-69.2055" y2="670.45" gradientUnits="userSpaceOnUse">
<stop stop-color="#97C3F9"/>
<stop offset="1" stop-color="#93C1F9"/>
</linearGradient>
<linearGradient id="paint22_linear" x1="68.4817" y1="883.11" x2="-40.863" y2="656.758" gradientUnits="userSpaceOnUse">
<stop/>
<stop offset="1" stop-color="white"/>
</linearGradient>
<linearGradient id="paint23_linear" x1="68.4817" y1="883.11" x2="-40.863" y2="656.758" gradientUnits="userSpaceOnUse">
<stop stop-color="#97C3F9"/>
<stop offset="1" stop-color="#93C1F9"/>
</linearGradient>
<linearGradient id="paint24_linear" x1="96.824" y1="869.418" x2="-12.5206" y2="643.067" gradientUnits="userSpaceOnUse">
<stop/>
<stop offset="1" stop-color="white"/>
</linearGradient>
<linearGradient id="paint25_linear" x1="96.824" y1="869.418" x2="-12.5206" y2="643.067" gradientUnits="userSpaceOnUse">
<stop stop-color="#97C3F9"/>
<stop offset="1" stop-color="#93C1F9"/>
</linearGradient>
<linearGradient id="paint26_linear" x1="125.167" y1="855.727" x2="15.8219" y2="629.375" gradientUnits="userSpaceOnUse">
<stop/>
<stop offset="1" stop-color="white"/>
</linearGradient>
<linearGradient id="paint27_linear" x1="125.167" y1="855.727" x2="15.8219" y2="629.375" gradientUnits="userSpaceOnUse">
<stop stop-color="#97C3F9"/>
<stop offset="1" stop-color="#93C1F9"/>
</linearGradient>
<linearGradient id="paint28_linear" x1="153.509" y1="842.035" x2="44.164" y2="615.684" gradientUnits="userSpaceOnUse">
<stop/>
<stop offset="1" stop-color="white"/>
</linearGradient>
<linearGradient id="paint29_linear" x1="153.509" y1="842.035" x2="44.164" y2="615.684" gradientUnits="userSpaceOnUse">
<stop stop-color="#97C3F9"/>
<stop offset="1" stop-color="#93C1F9"/>
</linearGradient>
<linearGradient id="paint30_linear" x1="30.4673" y1="901.474" x2="-78.8775" y2="675.122" gradientUnits="userSpaceOnUse">
<stop/>
<stop offset="1" stop-color="white"/>
</linearGradient>
<linearGradient id="paint31_linear" x1="30.4673" y1="901.474" x2="-78.8775" y2="675.122" gradientUnits="userSpaceOnUse">
<stop stop-color="#97C3F9"/>
<stop offset="1" stop-color="#93C1F9"/>
</linearGradient>
<linearGradient id="paint32_linear" x1="58.8097" y1="887.782" x2="-50.535" y2="661.431" gradientUnits="userSpaceOnUse">
<stop/>
<stop offset="1" stop-color="white"/>
</linearGradient>
<linearGradient id="paint33_linear" x1="58.8097" y1="887.782" x2="-50.535" y2="661.431" gradientUnits="userSpaceOnUse">
<stop stop-color="#97C3F9"/>
<stop offset="1" stop-color="#93C1F9"/>
</linearGradient>
<linearGradient id="paint34_linear" x1="87.152" y1="874.09" x2="-22.1926" y2="647.739" gradientUnits="userSpaceOnUse">
<stop/>
<stop offset="1" stop-color="white"/>
</linearGradient>
<linearGradient id="paint35_linear" x1="87.152" y1="874.09" x2="-22.1926" y2="647.739" gradientUnits="userSpaceOnUse">
<stop stop-color="#97C3F9"/>
<stop offset="1" stop-color="#93C1F9"/>
</linearGradient>
<linearGradient id="paint36_linear" x1="115.495" y1="860.399" x2="6.14994" y2="634.048" gradientUnits="userSpaceOnUse">
<stop/>
<stop offset="1" stop-color="white"/>
</linearGradient>
<linearGradient id="paint37_linear" x1="115.495" y1="860.399" x2="6.14994" y2="634.048" gradientUnits="userSpaceOnUse">
<stop stop-color="#97C3F9"/>
<stop offset="1" stop-color="#93C1F9"/>
</linearGradient>
<linearGradient id="paint38_linear" x1="143.837" y1="846.707" x2="34.4921" y2="620.356" gradientUnits="userSpaceOnUse">
<stop/>
<stop offset="1" stop-color="white"/>
</linearGradient>
<linearGradient id="paint39_linear" x1="143.837" y1="846.707" x2="34.4921" y2="620.356" gradientUnits="userSpaceOnUse">
<stop stop-color="#97C3F9"/>
<stop offset="1" stop-color="#93C1F9"/>
</linearGradient>
<linearGradient id="paint40_linear" x1="20.7953" y1="906.146" x2="-88.5494" y2="679.794" gradientUnits="userSpaceOnUse">
<stop/>
<stop offset="1" stop-color="white"/>
</linearGradient>
<linearGradient id="paint41_linear" x1="20.7953" y1="906.146" x2="-88.5494" y2="679.794" gradientUnits="userSpaceOnUse">
<stop stop-color="#97C3F9"/>
<stop offset="1" stop-color="#93C1F9"/>
</linearGradient>
<linearGradient id="paint42_linear" x1="49.1377" y1="892.454" x2="-60.207" y2="666.103" gradientUnits="userSpaceOnUse">
<stop/>
<stop offset="1" stop-color="white"/>
</linearGradient>
<linearGradient id="paint43_linear" x1="49.1377" y1="892.454" x2="-60.207" y2="666.103" gradientUnits="userSpaceOnUse">
<stop stop-color="#97C3F9"/>
<stop offset="1" stop-color="#93C1F9"/>
</linearGradient>
<linearGradient id="paint44_linear" x1="77.4801" y1="878.763" x2="-31.8645" y2="652.412" gradientUnits="userSpaceOnUse">
<stop/>
<stop offset="1" stop-color="white"/>
</linearGradient>
<linearGradient id="paint45_linear" x1="77.4801" y1="878.763" x2="-31.8645" y2="652.412" gradientUnits="userSpaceOnUse">
<stop stop-color="#97C3F9"/>
<stop offset="1" stop-color="#93C1F9"/>
</linearGradient>
<linearGradient id="paint46_linear" x1="105.823" y1="865.071" x2="-3.52201" y2="638.72" gradientUnits="userSpaceOnUse">
<stop/>
<stop offset="1" stop-color="white"/>
</linearGradient>
<linearGradient id="paint47_linear" x1="105.823" y1="865.071" x2="-3.52201" y2="638.72" gradientUnits="userSpaceOnUse">
<stop stop-color="#97C3F9"/>
<stop offset="1" stop-color="#93C1F9"/>
</linearGradient>
<linearGradient id="paint48_linear" x1="134.165" y1="851.38" x2="24.8201" y2="625.028" gradientUnits="userSpaceOnUse">
<stop/>
<stop offset="1" stop-color="white"/>
</linearGradient>
<linearGradient id="paint49_linear" x1="134.165" y1="851.38" x2="24.8201" y2="625.028" gradientUnits="userSpaceOnUse">
<stop stop-color="#97C3F9"/>
<stop offset="1" stop-color="#93C1F9"/>
</linearGradient>
<linearGradient id="paint50_linear" x1="570.483" y1="174.457" x2="461.139" y2="-51.8947" gradientUnits="userSpaceOnUse">
<stop/>
<stop offset="1" stop-color="white"/>
</linearGradient>
<linearGradient id="paint51_linear" x1="570.483" y1="174.457" x2="461.139" y2="-51.8947" gradientUnits="userSpaceOnUse">
<stop stop-color="#97C3F9"/>
<stop offset="1" stop-color="#93C1F9"/>
</linearGradient>
<linearGradient id="paint52_linear" x1="598.826" y1="160.765" x2="489.481" y2="-65.586" gradientUnits="userSpaceOnUse">
<stop/>
<stop offset="1" stop-color="white"/>
</linearGradient>
<linearGradient id="paint53_linear" x1="598.826" y1="160.765" x2="489.481" y2="-65.586" gradientUnits="userSpaceOnUse">
<stop stop-color="#97C3F9"/>
<stop offset="1" stop-color="#93C1F9"/>
</linearGradient>
<linearGradient id="paint54_linear" x1="627.168" y1="147.074" x2="517.824" y2="-79.2772" gradientUnits="userSpaceOnUse">
<stop/>
<stop offset="1" stop-color="white"/>
</linearGradient>
<linearGradient id="paint55_linear" x1="627.168" y1="147.074" x2="517.824" y2="-79.2772" gradientUnits="userSpaceOnUse">
<stop stop-color="#97C3F9"/>
<stop offset="1" stop-color="#93C1F9"/>
</linearGradient>
<linearGradient id="paint56_linear" x1="655.511" y1="133.382" x2="546.166" y2="-92.9692" gradientUnits="userSpaceOnUse">
<stop/>
<stop offset="1" stop-color="white"/>
</linearGradient>
<linearGradient id="paint57_linear" x1="655.511" y1="133.382" x2="546.166" y2="-92.9692" gradientUnits="userSpaceOnUse">
<stop stop-color="#97C3F9"/>
<stop offset="1" stop-color="#93C1F9"/>
</linearGradient>
<linearGradient id="paint58_linear" x1="683.853" y1="119.691" x2="574.508" y2="-106.661" gradientUnits="userSpaceOnUse">
<stop/>
<stop offset="1" stop-color="white"/>
</linearGradient>
<linearGradient id="paint59_linear" x1="683.853" y1="119.691" x2="574.508" y2="-106.661" gradientUnits="userSpaceOnUse">
<stop stop-color="#97C3F9"/>
<stop offset="1" stop-color="#93C1F9"/>
</linearGradient>
<linearGradient id="paint60_linear" x1="560.811" y1="179.128" x2="451.468" y2="-47.2217" gradientUnits="userSpaceOnUse">
<stop/>
<stop offset="1" stop-color="white"/>
</linearGradient>
<linearGradient id="paint61_linear" x1="560.811" y1="179.128" x2="451.468" y2="-47.2217" gradientUnits="userSpaceOnUse">
<stop stop-color="#97C3F9"/>
<stop offset="1" stop-color="#93C1F9"/>
</linearGradient>
<linearGradient id="paint62_linear" x1="589.154" y1="165.436" x2="479.811" y2="-60.9137" gradientUnits="userSpaceOnUse">
<stop/>
<stop offset="1" stop-color="white"/>
</linearGradient>
<linearGradient id="paint63_linear" x1="589.154" y1="165.436" x2="479.811" y2="-60.9137" gradientUnits="userSpaceOnUse">
<stop stop-color="#97C3F9"/>
<stop offset="1" stop-color="#93C1F9"/>
</linearGradient>
<linearGradient id="paint64_linear" x1="617.496" y1="151.745" x2="508.153" y2="-74.605" gradientUnits="userSpaceOnUse">
<stop/>
<stop offset="1" stop-color="white"/>
</linearGradient>
<linearGradient id="paint65_linear" x1="617.496" y1="151.745" x2="508.153" y2="-74.605" gradientUnits="userSpaceOnUse">
<stop stop-color="#97C3F9"/>
<stop offset="1" stop-color="#93C1F9"/>
</linearGradient>
<linearGradient id="paint66_linear" x1="645.839" y1="138.054" x2="536.496" y2="-88.2964" gradientUnits="userSpaceOnUse">
<stop/>
<stop offset="1" stop-color="white"/>
</linearGradient>
<linearGradient id="paint67_linear" x1="645.839" y1="138.054" x2="536.496" y2="-88.2964" gradientUnits="userSpaceOnUse">
<stop stop-color="#97C3F9"/>
<stop offset="1" stop-color="#93C1F9"/>
</linearGradient>
<linearGradient id="paint68_linear" x1="674.181" y1="124.362" x2="564.838" y2="-101.988" gradientUnits="userSpaceOnUse">
<stop/>
<stop offset="1" stop-color="white"/>
</linearGradient>
<linearGradient id="paint69_linear" x1="674.181" y1="124.362" x2="564.838" y2="-101.988" gradientUnits="userSpaceOnUse">
<stop stop-color="#97C3F9"/>
<stop offset="1" stop-color="#93C1F9"/>
</linearGradient>
<linearGradient id="paint70_linear" x1="551.139" y1="183.801" x2="441.795" y2="-42.55" gradientUnits="userSpaceOnUse">
<stop/>
<stop offset="1" stop-color="white"/>
</linearGradient>
<linearGradient id="paint71_linear" x1="551.139" y1="183.801" x2="441.795" y2="-42.55" gradientUnits="userSpaceOnUse">
<stop stop-color="#97C3F9"/>
<stop offset="1" stop-color="#93C1F9"/>
</linearGradient>
<linearGradient id="paint72_linear" x1="579.482" y1="170.11" x2="470.137" y2="-56.2416" gradientUnits="userSpaceOnUse">
<stop/>
<stop offset="1" stop-color="white"/>
</linearGradient>
<linearGradient id="paint73_linear" x1="579.482" y1="170.11" x2="470.137" y2="-56.2416" gradientUnits="userSpaceOnUse">
<stop stop-color="#97C3F9"/>
<stop offset="1" stop-color="#93C1F9"/>
</linearGradient>
<linearGradient id="paint74_linear" x1="607.824" y1="156.418" x2="498.479" y2="-69.933" gradientUnits="userSpaceOnUse">
<stop/>
<stop offset="1" stop-color="white"/>
</linearGradient>
<linearGradient id="paint75_linear" x1="607.824" y1="156.418" x2="498.479" y2="-69.933" gradientUnits="userSpaceOnUse">
<stop stop-color="#97C3F9"/>
<stop offset="1" stop-color="#93C1F9"/>
</linearGradient>
<linearGradient id="paint76_linear" x1="636.167" y1="142.727" x2="526.822" y2="-83.6247" gradientUnits="userSpaceOnUse">
<stop/>
<stop offset="1" stop-color="white"/>
</linearGradient>
<linearGradient id="paint77_linear" x1="636.167" y1="142.727" x2="526.822" y2="-83.6247" gradientUnits="userSpaceOnUse">
<stop stop-color="#97C3F9"/>
<stop offset="1" stop-color="#93C1F9"/>
</linearGradient>
<linearGradient id="paint78_linear" x1="664.509" y1="129.035" x2="555.164" y2="-97.3162" gradientUnits="userSpaceOnUse">
<stop/>
<stop offset="1" stop-color="white"/>
</linearGradient>
<linearGradient id="paint79_linear" x1="664.509" y1="129.035" x2="555.164" y2="-97.3162" gradientUnits="userSpaceOnUse">
<stop stop-color="#97C3F9"/>
<stop offset="1" stop-color="#93C1F9"/>
</linearGradient>
<linearGradient id="paint80_linear" x1="541.467" y1="188.474" x2="432.123" y2="-37.8778" gradientUnits="userSpaceOnUse">
<stop/>
<stop offset="1" stop-color="white"/>
</linearGradient>
<linearGradient id="paint81_linear" x1="541.467" y1="188.474" x2="432.123" y2="-37.8778" gradientUnits="userSpaceOnUse">
<stop stop-color="#97C3F9"/>
<stop offset="1" stop-color="#93C1F9"/>
</linearGradient>
<linearGradient id="paint82_linear" x1="569.81" y1="174.782" x2="460.465" y2="-51.5693" gradientUnits="userSpaceOnUse">
<stop/>
<stop offset="1" stop-color="white"/>
</linearGradient>
<linearGradient id="paint83_linear" x1="569.81" y1="174.782" x2="460.465" y2="-51.5693" gradientUnits="userSpaceOnUse">
<stop stop-color="#97C3F9"/>
<stop offset="1" stop-color="#93C1F9"/>
</linearGradient>
<linearGradient id="paint84_linear" x1="598.152" y1="161.09" x2="488.807" y2="-65.2607" gradientUnits="userSpaceOnUse">
<stop/>
<stop offset="1" stop-color="white"/>
</linearGradient>
<linearGradient id="paint85_linear" x1="598.152" y1="161.09" x2="488.807" y2="-65.2607" gradientUnits="userSpaceOnUse">
<stop stop-color="#97C3F9"/>
<stop offset="1" stop-color="#93C1F9"/>
</linearGradient>
<linearGradient id="paint86_linear" x1="626.495" y1="147.399" x2="517.15" y2="-78.9524" gradientUnits="userSpaceOnUse">
<stop/>
<stop offset="1" stop-color="white"/>
</linearGradient>
<linearGradient id="paint87_linear" x1="626.495" y1="147.399" x2="517.15" y2="-78.9524" gradientUnits="userSpaceOnUse">
<stop stop-color="#97C3F9"/>
<stop offset="1" stop-color="#93C1F9"/>
</linearGradient>
<linearGradient id="paint88_linear" x1="654.837" y1="133.707" x2="545.492" y2="-92.644" gradientUnits="userSpaceOnUse">
<stop/>
<stop offset="1" stop-color="white"/>
</linearGradient>
<linearGradient id="paint89_linear" x1="654.837" y1="133.707" x2="545.492" y2="-92.644" gradientUnits="userSpaceOnUse">
<stop stop-color="#97C3F9"/>
<stop offset="1" stop-color="#93C1F9"/>
</linearGradient>
<linearGradient id="paint90_linear" x1="531.795" y1="193.146" x2="422.451" y2="-33.2055" gradientUnits="userSpaceOnUse">
<stop/>
<stop offset="1" stop-color="white"/>
</linearGradient>
<linearGradient id="paint91_linear" x1="531.795" y1="193.146" x2="422.451" y2="-33.2055" gradientUnits="userSpaceOnUse">
<stop stop-color="#97C3F9"/>
<stop offset="1" stop-color="#93C1F9"/>
</linearGradient>
<linearGradient id="paint92_linear" x1="560.138" y1="179.454" x2="450.793" y2="-46.8971" gradientUnits="userSpaceOnUse">
<stop/>
<stop offset="1" stop-color="white"/>
</linearGradient>
<linearGradient id="paint93_linear" x1="560.138" y1="179.454" x2="450.793" y2="-46.8971" gradientUnits="userSpaceOnUse">
<stop stop-color="#97C3F9"/>
<stop offset="1" stop-color="#93C1F9"/>
</linearGradient>
<linearGradient id="paint94_linear" x1="588.48" y1="165.763" x2="479.135" y2="-60.5884" gradientUnits="userSpaceOnUse">
<stop/>
<stop offset="1" stop-color="white"/>
</linearGradient>
<linearGradient id="paint95_linear" x1="588.48" y1="165.763" x2="479.135" y2="-60.5884" gradientUnits="userSpaceOnUse">
<stop stop-color="#97C3F9"/>
<stop offset="1" stop-color="#93C1F9"/>
</linearGradient>
<linearGradient id="paint96_linear" x1="616.823" y1="152.071" x2="507.478" y2="-74.2801" gradientUnits="userSpaceOnUse">
<stop/>
<stop offset="1" stop-color="white"/>
</linearGradient>
<linearGradient id="paint97_linear" x1="616.823" y1="152.071" x2="507.478" y2="-74.2801" gradientUnits="userSpaceOnUse">
<stop stop-color="#97C3F9"/>
<stop offset="1" stop-color="#93C1F9"/>
</linearGradient>
<linearGradient id="paint98_linear" x1="645.165" y1="138.38" x2="535.82" y2="-87.9716" gradientUnits="userSpaceOnUse">
<stop/>
<stop offset="1" stop-color="white"/>
</linearGradient>
<linearGradient id="paint99_linear" x1="645.165" y1="138.38" x2="535.82" y2="-87.9716" gradientUnits="userSpaceOnUse">
<stop stop-color="#97C3F9"/>
<stop offset="1" stop-color="#93C1F9"/>
</linearGradient>
</defs>
</svg>
