<svg width="69" height="65" viewBox="0 0 69 65" fill="none" xmlns="http://www.w3.org/2000/svg">
<g clip-path="url(#clip0)">
<path d="M15.0528 5.78409C8.33008 10.0921 3.4478 16.5073 1.27465 23.888C-0.8985 31.2687 -0.221563 39.1364 3.18501 46.0911C6.59159 53.0458 12.5069 58.6365 19.8783 61.8684C27.2498 65.1003 35.5993 65.7638 43.4414 63.7409C50.5756 61.961 56.9124 58.0657 61.5148 52.6309C66.1172 47.1961 68.741 40.5104 68.998 33.5623C68.1386 38.3825 66.0678 42.9393 62.9586 46.8522C59.8493 50.7652 55.7917 53.9209 51.1244 56.056C46.4571 58.1911 41.3154 59.2437 36.1283 59.126C30.9413 59.0083 25.8594 57.7236 21.3066 55.3792C16.7538 53.0349 12.8623 49.6988 9.95667 45.6493C7.05106 41.5998 5.21566 36.9545 4.60364 32.1008C3.99161 27.2472 4.6207 22.3261 6.43841 17.748C8.25613 13.17 11.2097 9.06796 15.0528 5.78409" fill="#388AF7"/>
<path d="M52.3795 50.1428C56.503 47.5062 59.8395 43.9169 62.0697 39.7184C64.2999 35.5199 65.3494 30.8526 65.1176 26.1628C64.8859 21.4731 63.3807 16.9178 60.746 12.9326C58.1114 8.94745 54.4354 5.66572 50.0697 3.40132C45.7039 1.13692 40.7945 -0.0344214 35.8108 -0.000663758C30.8272 0.0330939 25.9362 1.27082 21.6054 3.59413C17.2747 5.91744 13.6492 9.24862 11.0757 13.2691C8.50212 17.2895 7.06663 21.8647 6.90649 26.5571C7.65061 22.4953 9.41438 18.6598 12.0508 15.3703C14.6873 12.0807 18.1201 9.4323 22.0633 7.64575C26.0064 5.85919 30.3457 4.9862 34.7195 5.09953C39.0934 5.21287 43.3752 6.30923 47.2081 8.29728C51.041 10.2853 54.3141 13.1075 56.7546 16.5286C59.1952 19.9497 60.7325 23.8707 61.2384 27.9649C61.7444 32.0591 61.2044 36.208 59.6634 40.0657C58.1224 43.9235 55.6251 47.3785 52.3795 50.1428Z" fill="#7BDEFB"/>
<path d="M35.6894 43.6308V50.2942C35.6894 56.9539 32.4178 62.5022 28.3951 62.5022C24.4444 62.5022 21.1757 56.9539 21.1757 50.2942V42.0578C23.5316 41.5007 25.3561 38.9109 25.3561 35.7695C25.3561 32.2539 23.0003 29.3865 20.1121 29.3865C17.224 29.3865 14.7922 32.2539 14.7922 35.7695C14.7922 38.9072 16.6168 41.5072 19.0495 42.0578V50.2942C19.0495 58.4313 23.227 65 28.3951 65C33.5632 65 37.8215 58.4313 37.8215 50.2942V43.6308C39.9467 43.2594 42.0758 41.873 43.9733 39.4689C44.1176 39.2843 44.2193 39.0732 44.2719 38.8494C44.3246 38.6255 44.3269 38.3937 44.2789 38.1689C46.7658 34.3129 48.1531 29.9171 48.3065 25.4076C48.3065 19.3951 45.9507 18.7497 41.998 17.7292C41.9009 17.4523 41.7196 17.2085 41.4765 17.028C41.2333 16.8475 40.9392 16.7384 40.6308 16.7143C40.1875 16.7687 39.7832 16.9808 39.5007 17.3072C39.2182 17.6335 39.0791 18.0493 39.1118 18.4693C39.0796 18.8803 39.2213 19.2867 39.5058 19.5998C39.7903 19.9128 40.1947 20.1073 40.6308 20.1407C40.8034 20.1539 40.9768 20.1269 41.1358 20.0621C41.2948 19.9974 41.4345 19.8968 41.5426 19.7693C45.4204 20.7907 46.482 21.0637 46.482 25.4122C46.3105 29.4357 45.0554 33.352 42.8348 36.7928C42.6328 36.7948 42.435 36.8475 42.2618 36.9454C42.0885 37.0434 41.9461 37.183 41.8491 37.3499C40.7067 38.8199 38.8841 40.5786 36.7549 40.5786C34.6258 40.5786 32.8801 38.8208 31.7377 37.3416C31.6341 37.18 31.4901 37.0448 31.3183 36.9477C31.1464 36.8506 30.952 36.7945 30.7519 36.7844C28.5306 33.344 27.2754 29.4275 27.1048 25.4039C27.1048 21.0554 28.0905 20.7787 31.9654 19.7609C32.083 19.878 32.2246 19.9713 32.3817 20.0351C32.5388 20.099 32.708 20.132 32.8791 20.1324C33.3152 20.0989 33.7195 19.9045 34.0041 19.5914C34.2886 19.2783 34.4302 18.872 34.3981 18.4609C34.4282 18.0426 34.288 17.6291 34.006 17.3046C33.724 16.9801 33.3214 16.7691 32.8801 16.7143C32.5749 16.7488 32.2856 16.8617 32.0439 17.0407C31.8023 17.2197 31.6175 17.4579 31.51 17.7292C27.5582 18.7507 25.2014 19.3951 25.2014 25.4076C25.3423 29.9207 26.732 34.321 29.233 38.1726C29.1993 38.6338 29.3328 39.0921 29.6115 39.4727C31.436 41.8758 33.5632 43.264 35.6933 43.6345" fill="#388AF7"/>
</g>
<defs>
<clipPath id="clip0">
<rect width="69" height="65" fill="white"/>
</clipPath>
</defs>
</svg>
