<svg width="28" height="40" viewBox="0 0 28 40" fill="none" xmlns="http://www.w3.org/2000/svg">
<path d="M27.7813 36.4549L27.7188 35.8915C27.694 35.6686 27.4932 35.5079 27.2704 35.5327L27.2353 35.5366L26.6295 30.6905C26.4977 29.6364 25.7724 28.7516 24.7645 28.4156L21.3984 27.2936C20.9362 27.1394 20.4291 27.2375 20.0727 27.5413L19.0811 27.2108C18.5178 27.023 18.138 26.496 18.138 25.9023V23.678L21.1088 22.4401C22.6508 21.7978 23.6552 20.2912 23.6552 18.6207V17.931C24.7979 17.931 25.7242 17.0047 25.7242 15.862C25.7242 15.517 25.6393 15.1919 25.4898 14.9058C25.6401 14.5653 25.7242 14.1891 25.7242 13.7931C25.7242 13.5138 25.6703 13.2496 25.5932 12.9956C26.0993 12.4955 26.4139 11.8021 26.4139 11.0345C26.4139 10.7551 26.36 10.491 26.2828 10.237C26.789 9.73688 27.1035 9.04352 27.1035 8.27584C27.1035 6.94904 26.1662 5.84257 24.918 5.57852C24.9864 5.33826 25.0345 5.08973 25.0345 4.82758C25.0345 3.30404 23.7995 2.06896 22.2759 2.06896C21.7038 2.06896 21.1724 2.24327 20.7317 2.54155C20.3552 1.46595 19.3421 0.689654 18.138 0.689654C17.4578 0.689654 16.8431 0.945257 16.3621 1.35345C15.8809 0.546292 15.0081 0 14.0002 0C12.9922 0 12.1195 0.546292 11.6382 1.35345C11.1572 0.945257 10.5425 0.689654 9.86225 0.689654C8.65812 0.689654 7.64501 1.46595 7.26855 2.54155C6.82777 2.24327 6.2964 2.06896 5.72433 2.06896C4.2008 2.06896 2.96571 3.30404 2.96571 4.82758C2.96571 5.08973 3.01399 5.33826 3.08226 5.57852C1.83399 5.84257 0.896667 6.94904 0.896667 8.27584C0.896667 9.04352 1.21123 9.73688 1.71735 10.237C1.6402 10.491 1.58632 10.7551 1.58632 11.0345C1.58632 11.8021 1.90089 12.4955 2.40701 12.9956C2.32985 13.2496 2.27597 13.5138 2.27597 13.7931C2.27597 14.1891 2.36003 14.5653 2.51037 14.9058C2.36097 15.1919 2.27597 15.517 2.27597 15.862C2.27597 17.0047 3.20226 17.931 4.34493 17.931V18.6207C4.34493 20.2911 5.34933 21.7977 6.89131 22.4403L9.86216 23.6781V25.9024C9.86216 26.4961 9.48225 27.0231 8.91906 27.2109L7.92751 27.5414C7.57105 27.2376 7.06398 27.1395 6.60174 27.2936L3.23563 28.4157C2.22778 28.7517 1.50244 29.6365 1.37063 30.6906L0.764857 35.5367L0.729771 35.5328C0.506926 35.508 0.306151 35.6686 0.281409 35.8916L0.218823 36.455C0.194082 36.6779 0.354685 36.8786 0.577529 36.9034L1.58632 37.0154V38.6206C1.58632 39.3823 2.20391 39.9999 2.96563 39.9999H6.4139H21.5863H25.0345C25.7964 39.9999 26.4139 39.3823 26.4139 38.6206V37.0154L27.4226 36.9033C27.6455 36.8785 27.8062 36.6778 27.7813 36.4549Z" fill="#C38762"/>
<path d="M26.2827 10.237C26.7888 9.73687 27.1033 9.04351 27.1033 8.27584C27.1033 6.94904 26.166 5.84257 24.9178 5.57852C24.9862 5.33826 25.0344 5.08973 25.0344 4.82758C25.0344 3.30404 23.7993 2.06896 22.2757 2.06896C21.7036 2.06896 21.1722 2.24327 20.7315 2.54155C20.3551 1.46595 19.342 0.689654 18.1378 0.689654C17.4576 0.689654 16.8429 0.945256 16.3619 1.35345C15.8808 0.546292 15.0079 0 14 0C12.9921 0 12.1193 0.546292 11.638 1.35345C11.157 0.945256 10.5423 0.689654 9.86207 0.689654C8.65793 0.689654 7.64483 1.46595 7.26837 2.54155C6.82759 2.24327 6.29621 2.06896 5.72415 2.06896C4.20062 2.06896 2.96553 3.30404 2.96553 4.82758C2.96553 5.08973 3.01381 5.33826 3.08208 5.57852C1.83381 5.84257 0.896484 6.94904 0.896484 8.27584C0.896484 9.04351 1.21105 9.73687 1.71717 10.237C1.64002 10.491 1.58614 10.7551 1.58614 11.0345C1.58614 11.8021 1.90071 12.4955 2.40683 12.9956C2.32967 13.2496 2.27579 13.5138 2.27579 13.7931C2.27579 15.3166 3.51087 16.5517 5.03441 16.5517C5.03466 16.5517 5.03492 16.5517 5.03527 16.5517H22.9646C22.9649 16.5517 22.9651 16.5517 22.9655 16.5517C24.489 16.5517 25.7241 15.3166 25.7241 13.7931C25.7241 13.5138 25.6702 13.2496 25.5931 12.9956C26.0992 12.4955 26.4138 11.8021 26.4138 11.0345C26.4137 10.7551 26.3599 10.491 26.2827 10.237Z" fill="#623F33"/>
<path d="M21.5864 40.0002V36.5519H27.3622L26.6295 30.6908C26.4977 29.6366 25.7724 28.7518 24.7645 28.4159L21.3984 27.2938C20.8122 27.0984 20.1527 27.3071 19.8216 27.8288C18.5992 29.755 16.4505 31.0346 14.0002 31.0346C11.55 31.0346 9.40121 29.7549 8.17871 27.8287C7.84759 27.307 7.18811 27.0983 6.6019 27.2937L3.23579 28.4158C2.22794 28.7517 1.5026 29.6365 1.37079 30.6907L0.714844 35.9383L6.41406 36.5518V40.0001H21.5864V40.0002H21.5864Z" fill="#FFD739"/>
<path d="M18.1379 23.6781L9.86202 21.839V25.9024C9.86202 26.3988 9.58736 26.8361 9.1709 27.0799C14.9549 28.0923 18.1379 23.6781 18.1379 23.6781Z" fill="#A46D4D"/>
<path d="M23.6551 13.7931V11.7241C23.6551 9.81972 22.1113 7.58619 20.2069 7.58619H7.79311C5.88863 7.58619 4.34484 9.81972 4.34484 11.7241V13.7931C3.20217 13.7931 2.27588 14.7195 2.27588 15.862C2.27588 17.0047 3.20217 17.931 4.34484 17.931V18.6207C4.34484 20.2911 5.34923 21.7977 6.89121 22.4403L11.3473 24.297C12.1879 24.6473 13.0895 24.8275 14 24.8275C14.9105 24.8275 15.812 24.6472 16.6525 24.297L21.1089 22.4402C22.6508 21.7978 23.6551 20.2912 23.6551 18.6207V17.931C24.7978 17.931 25.7241 17.0047 25.7241 15.862C25.7241 14.7194 24.7978 13.7931 23.6551 13.7931Z" fill="#D29771"/>
<path d="M9.17256 16.5517C8.79325 16.5517 8.48291 16.2413 8.48291 15.862V15.1724C8.48291 14.7931 8.79325 14.4827 9.17256 14.4827C9.55187 14.4827 9.86222 14.7931 9.86222 15.1724V15.862C9.86222 16.2413 9.55179 16.5517 9.17256 16.5517Z" fill="#623F33"/>
<path d="M18.8278 16.5517C18.4485 16.5517 18.1382 16.2413 18.1382 15.862V15.1724C18.1382 14.7931 18.4485 14.4827 18.8278 14.4827C19.2071 14.4827 19.5175 14.7931 19.5175 15.1724V15.862C19.5175 16.2413 19.2071 16.5517 18.8278 16.5517Z" fill="#623F33"/>
<path d="M14.0001 21.3981C12.774 21.3981 11.6271 21.0964 10.8535 20.5701C10.5387 20.3559 10.4569 19.9269 10.6714 19.6121C10.8852 19.2976 11.3146 19.2157 11.6294 19.4299C12.1716 19.7986 13.0578 20.0189 14.0001 20.0189C14.9423 20.0189 15.8286 19.7986 16.3708 19.4299C16.6863 19.2151 17.1146 19.2972 17.3288 19.6121C17.5433 19.9269 17.4615 20.3559 17.1466 20.5701C16.3732 21.0964 15.2262 21.3981 14.0001 21.3981Z" fill="#A46D4D"/>
<path d="M6.41391 37.0724V35.5115C6.41391 34.848 6.17478 34.2068 5.74038 33.7052L1.94565 29.3248C1.63944 29.7125 1.43444 30.1808 1.37073 30.6906L0.650391 36.4532C1.7472 36.5191 4.66478 36.8609 6.41391 37.0724Z" fill="#FFC33D"/>
<path d="M6.41398 36.1643L0.729856 35.5327C0.506926 35.508 0.306237 35.6686 0.281409 35.8914L0.218823 36.4549C0.194082 36.6777 0.354685 36.8785 0.577529 36.9033L6.41398 37.5518V36.1643Z" fill="#FFB440"/>
<path d="M21.5864 37.0724V35.5115C21.5864 34.848 21.8256 34.2068 22.26 33.7052L26.0547 29.3248C26.3609 29.7125 26.5659 30.1808 26.6296 30.6906L27.3499 36.4532C26.2531 36.5191 23.3355 36.8609 21.5864 37.0724Z" fill="#FFC33D"/>
<path d="M21.5864 36.1643L27.2706 35.5327C27.4935 35.508 27.6942 35.6686 27.719 35.8914L27.7816 36.4549C27.8063 36.6777 27.6457 36.8785 27.4229 36.9033L21.5864 37.5518V36.1643Z" fill="#FFB440"/>
<path d="M4.34484 7.6724V13.7931C3.20217 13.7931 2.27588 14.7194 2.27588 15.862C2.27588 17.0047 3.20217 17.931 4.34484 17.931V18.6207C4.34484 20.2912 5.34923 21.7978 6.89121 22.4403L11.3472 24.297C11.5653 24.3879 11.7879 24.4662 12.0134 24.534C10.0441 23.0934 8.73319 21.834 7.96509 21.0106C7.4063 20.4114 7.10345 19.6208 7.10345 18.8015V11.0149C7.8375 10.9331 8.49276 10.5939 8.9813 10.0914C9.3575 10.2534 9.77129 10.3448 10.2069 10.3448C11.1549 10.3448 11.993 9.91067 12.5622 9.24084C12.982 9.49886 13.4712 9.65515 14 9.65515C14.7082 9.65515 15.3473 9.3805 15.8358 8.94188C16.3713 9.38084 17.0468 9.65515 17.7931 9.65515C19.1107 9.65515 20.2283 8.83145 20.6763 7.6724H4.34484Z" fill="#C38762"/>
<path d="M23.6551 8.27585C23.6103 8.27585 23.5685 8.28619 23.5244 8.28904C23.6044 8.06869 23.6551 7.83412 23.6551 7.58619C23.6551 6.44352 22.7289 5.51723 21.5862 5.51723C21.3352 5.51723 21.0977 5.5687 20.8752 5.65051C20.7645 4.03715 19.4346 2.75862 17.7931 2.75862C16.3799 2.75862 15.2008 3.70904 14.8258 5.00128C14.5725 4.89068 14.294 4.82758 14 4.82758C13.2259 4.82758 12.5593 5.25766 12.2045 5.88706C11.7703 5.24783 11.0379 4.82758 10.207 4.82758C9.2194 4.82758 8.37311 5.42223 7.99932 6.27154C7.61983 5.81447 7.05432 5.51723 6.41389 5.51723C5.64518 5.51723 4.97492 5.93671 4.6182 6.55895C4.57079 6.55421 4.52277 6.55171 4.47415 6.55171C3.68855 6.55171 3.05174 7.18852 3.05174 7.97412C3.05174 8.20585 3.10829 8.42395 3.20665 8.61731C2.64605 8.9874 2.27588 9.62274 2.27588 10.3448C2.27588 11.4875 3.20217 12.4138 4.34484 12.4138C5.48751 12.4138 6.4138 11.4875 6.4138 10.3448C6.4138 10.0969 6.36303 9.86231 6.28303 9.64196C6.32716 9.64481 6.36906 9.65515 6.4138 9.65515C7.18785 9.65515 7.85457 9.22507 8.20932 8.59567C8.64354 9.2349 9.37604 9.65515 10.2069 9.65515C11.1945 9.65515 12.0408 9.0605 12.4146 8.21119C12.794 8.66826 13.3594 8.9655 14 8.9655C14.6865 8.9655 15.2902 8.6274 15.6666 8.11266C16.2227 8.638 16.9678 8.9655 17.7931 8.9655C18.4971 8.9655 19.139 8.72205 19.6598 8.32697C19.9583 9.10248 20.7054 9.65515 21.5862 9.65515C21.631 9.65515 21.6728 9.64481 21.717 9.64196C21.637 9.86231 21.5862 10.0969 21.5862 10.3448C21.5862 11.4875 22.5125 12.4138 23.6551 12.4138C24.7978 12.4138 25.7241 11.4875 25.7241 10.3448C25.7241 9.20214 24.7978 8.27585 23.6551 8.27585Z" fill="#623F33"/>
</svg>
