<svg width="40" height="48" viewBox="0 0 40 48" fill="none" xmlns="http://www.w3.org/2000/svg">
<g filter="url(#filter0_d)">
<path d="M33.5024 37.6743L32.6295 30.6905C32.4977 29.6364 31.7723 28.7516 30.7646 28.4156L27.3985 27.2936C26.9362 27.1394 26.4292 27.2376 26.0727 27.5413L25.0811 27.2108C24.518 27.023 24.138 26.496 24.138 25.9023V23.678L27.1088 22.4401C28.6508 21.7978 29.6552 20.2912 29.6552 18.6207V17.931C30.7979 17.931 31.7241 17.0047 31.7241 15.862C31.7241 15.3466 31.5353 14.8756 31.2235 14.5133C31.8089 12.3825 33.4543 5.64214 31.7241 2.75862L32.4138 0C32.4138 0 25.1724 0.172413 21.3793 1.37931L22.7586 0C22.7586 0 13.0604 0 11.0351 3.44767L11.0345 3.44827C11.0345 3.44827 7.58627 3.41956 7.58627 7.58619C7.58627 9.11119 8.43687 12.9191 8.80204 14.484C8.47506 14.8499 8.27592 15.3326 8.27592 15.862C8.27592 17.0047 9.20221 17.931 10.3449 17.931V18.6207C10.3449 20.2911 11.3493 21.7977 12.8913 22.4403L15.8621 23.6781V25.9024C15.8621 26.4961 15.4822 27.0231 14.919 27.2109L13.9275 27.5414C13.571 27.2377 13.0639 27.1395 12.6017 27.2936L9.23557 28.4157C8.22773 28.7517 7.50239 29.6365 7.37066 30.6906L6.49773 37.6744C6.34334 38.9092 7.30618 39.9999 8.55066 39.9999H8.57006H31.43H31.4494C32.6939 39.9999 33.6568 38.9092 33.5024 37.6743Z" fill="#FFD7A3"/>
<path d="M24.1379 23.6781L15.862 23.6781V25.9024C15.862 26.3988 15.5874 26.8361 15.1709 27.0799C20.9549 28.0922 24.1379 23.6781 24.1379 23.6781Z" fill="#FDC88E"/>
<path d="M8.96573 15.1724C8.96573 15.1724 7.58643 9.52808 7.58643 7.58619C7.58643 3.41956 11.0347 3.44827 11.0347 3.44827L11.0353 3.44766C13.0606 0 22.7588 0 22.7588 0L21.3795 1.37931C25.1726 0.172413 32.414 0 32.414 0L31.7243 2.75861C33.7933 6.20688 31.0346 15.1724 31.0346 15.1724H8.96573Z" fill="#734A3E"/>
<path d="M22.7588 0C22.7588 0 13.0606 0 11.0353 3.44766L11.0347 3.44827C11.0347 3.44827 7.58643 3.41956 7.58643 7.58619C7.58643 9.52808 8.96573 15.1724 8.96573 15.1724C8.96573 15.1724 23.3048 8.76438 32.414 0C32.414 0 25.1726 0.172413 21.3795 1.37931L22.7588 0Z" fill="#623F33"/>
<path d="M29.6551 13.7931V12.4138C29.6551 10.5094 28.1113 8.96555 26.2069 8.96555H13.7931C11.8887 8.96555 10.3448 10.5094 10.3448 12.4138V13.7931C9.20217 13.7931 8.27588 14.7194 8.27588 15.8621C8.27588 17.0048 9.20217 17.931 10.3448 17.931V18.6207C10.3448 20.2911 11.3492 21.7978 12.8912 22.4403L17.3473 24.2971C18.1878 24.6473 19.0894 24.8276 19.9999 24.8276C20.9104 24.8276 21.8119 24.6472 22.6524 24.2971L27.1088 22.4403C28.6507 21.7978 29.6551 20.2912 29.6551 18.6207V17.931C30.7978 17.931 31.7241 17.0048 31.7241 15.8621C31.7241 14.7194 30.7978 13.7931 29.6551 13.7931Z" fill="#FFE1B2"/>
<path d="M15.1726 16.5517C14.7933 16.5517 14.4829 16.2413 14.4829 15.862V15.1724C14.4829 14.793 14.7933 14.4827 15.1726 14.4827C15.5519 14.4827 15.8622 14.793 15.8622 15.1724V15.862C15.8622 16.2413 15.5519 16.5517 15.1726 16.5517Z" fill="#623F33"/>
<path d="M24.8278 16.5517C24.4485 16.5517 24.1382 16.2413 24.1382 15.862V15.1724C24.1382 14.793 24.4485 14.4827 24.8278 14.4827C25.2071 14.4827 25.5175 14.793 25.5175 15.1724V15.862C25.5175 16.2413 25.2071 16.5517 24.8278 16.5517Z" fill="#623F33"/>
<path d="M20.0001 21.3982C18.774 21.3982 17.6271 21.0965 16.8536 20.5702C16.5388 20.3561 16.4569 19.927 16.6714 19.6122C16.8852 19.2977 17.3146 19.2158 17.6294 19.4301C18.1716 19.7988 19.0579 20.019 20.0001 20.019C20.9424 20.019 21.8287 19.7988 22.3708 19.4301C22.6863 19.2152 23.1147 19.2974 23.3288 19.6122C23.5433 19.927 23.4615 20.3561 23.1467 20.5702C22.3732 21.0965 21.2262 21.3982 20.0001 21.3982Z" fill="#E4B07B"/>
<path d="M33.5024 37.6743L32.6295 30.6905C32.4978 29.6364 31.7723 28.7516 30.7646 28.4156L27.3985 27.2936C26.8123 27.0981 26.1528 27.3068 25.8217 27.8285C24.5991 29.7548 22.4504 31.0343 20 31.0343C17.5497 31.0343 15.401 29.7547 14.1785 27.8285C13.8474 27.3068 13.1879 27.0981 12.6017 27.2936L9.23557 28.4156C8.22773 28.7516 7.50239 29.6364 7.37066 30.6905L6.49773 37.6743C6.34334 38.9091 7.30627 39.9999 8.55075 39.9999H31.4495C32.6939 39.9999 33.6568 38.9091 33.5024 37.6743Z" fill="#00BEA4"/>
<path d="M7.94558 29.3248C7.63937 29.7125 7.43437 30.1808 7.37066 30.6906L6.49773 37.6744C6.34334 38.9093 7.30627 40 8.55075 40H12.4138V35.5114C12.4138 34.8479 12.1747 34.2067 11.7403 33.7051L7.94558 29.3248Z" fill="#00AB9A"/>
<path d="M32.0547 29.3248C32.3609 29.7125 32.5659 30.1808 32.6296 30.6906L33.5025 37.6744C33.6569 38.9093 32.694 40 31.4495 40H27.5864V35.5114C27.5864 34.8479 27.8256 34.2067 28.26 33.7051L32.0547 29.3248Z" fill="#00AB9A"/>
<path d="M13.9652 21.0106C13.4064 20.4115 13.1035 19.6209 13.1035 18.8016V10.9861C15.2986 10.8215 22.2194 10.223 26.207 8.96555H13.7931C13.5557 8.96555 13.3258 8.99322 13.1035 9.04149V9.03503C11.5296 9.3546 10.3448 10.7456 10.3448 12.4138V13.7931C9.20217 13.7931 8.27588 14.7194 8.27588 15.8621C8.27588 17.0048 9.20217 17.931 10.3448 17.931V18.6207C10.3448 20.2912 11.3492 21.7978 12.8912 22.4403L17.3472 24.2971C17.5653 24.3879 17.7879 24.4662 18.0134 24.534C16.0441 23.0934 14.7332 21.834 13.9652 21.0106Z" fill="#FFD7A3"/>
</g>
<defs>
<filter id="filter0_d" x="-4" y="0" width="48" height="48" filterUnits="userSpaceOnUse" color-interpolation-filters="sRGB">
<feFlood flood-opacity="0" result="BackgroundImageFix"/>
<feColorMatrix in="SourceAlpha" type="matrix" values="0 0 0 0 0 0 0 0 0 0 0 0 0 0 0 0 0 0 127 0"/>
<feOffset dy="4"/>
<feGaussianBlur stdDeviation="2"/>
<feColorMatrix type="matrix" values="0 0 0 0 0 0 0 0 0 0 0 0 0 0 0 0 0 0 0.25 0"/>
<feBlend mode="normal" in2="BackgroundImageFix" result="effect1_dropShadow"/>
<feBlend mode="normal" in="SourceGraphic" in2="effect1_dropShadow" result="shape"/>
</filter>
</defs>
</svg>
