<svg width="40" height="40" viewBox="0 0 40 40" fill="none" xmlns="http://www.w3.org/2000/svg">
<path d="M36.5517 13.7931C36.5517 13.7931 33.7068 14.1379 32.4137 9.65517C30.6296 3.47 26.6654 0 19.9999 0C13.3345 0 9.37029 3.47 7.58615 9.65517C6.29305 14.1379 3.44822 13.7931 3.44822 13.7931C3.44822 13.7931 1.8965 17.2414 5.51719 19.3103H4.13788C4.13788 19.3103 4.97632 23.4977 9.19848 24.0669C9.73512 25.2794 11.4138 26.8966 16.5517 26.8966H19.9999H23.4482C28.5861 26.8966 30.2648 25.2793 30.8014 24.0669C35.0236 23.4977 35.862 19.3103 35.862 19.3103H34.4827C38.1034 17.2414 36.5517 13.7931 36.5517 13.7931Z" fill="#9D6E48"/>
<path d="M26.8965 13.7931C18.362 9.48276 18.8793 1.89655 19.9999 0C13.3346 0 9.37029 3.47 7.58615 9.65517C6.29305 14.1379 3.44822 13.7931 3.44822 13.7931C3.44822 13.7931 1.8965 17.2414 5.51719 19.3103H4.13788C4.13788 19.3103 4.97632 23.4977 9.19848 24.0669C9.73512 25.2794 11.4138 26.8966 16.5517 26.8966L26.8965 13.7931Z" fill="#8D5F3D"/>
<path d="M32.7912 37.6577L31.9991 31.7173C31.83 30.449 30.9725 29.3787 29.7718 28.9369L25.0811 27.211C24.5179 27.0233 24.138 26.4962 24.138 25.9025V23.6782L27.1087 22.4403C28.6508 21.7978 29.6552 20.2912 29.6552 18.6207V17.931C30.7979 17.931 31.7242 17.0047 31.7242 15.8621C31.7242 14.7194 30.7979 13.7931 29.6552 13.7931V12.4138C29.6552 10.5093 28.1113 8.96552 26.2069 8.96552H13.7931C11.8887 8.96552 10.3449 10.5094 10.3449 12.4138V13.7931C9.20219 13.7931 8.2759 14.7194 8.2759 15.8621C8.2759 17.0047 9.20219 17.931 10.3449 17.931V18.6207C10.3449 20.2912 11.3493 21.7978 12.8912 22.4403L15.8621 23.6782V25.9024C15.8621 26.4961 15.4822 27.0232 14.919 27.2109L10.2283 28.9368C9.02754 29.3786 8.17012 30.449 8.00099 31.7172L7.20892 37.6576C7.04357 38.8979 8.0084 40 9.25969 40H20H30.7404C31.9917 40 32.9566 38.8979 32.7912 37.6577Z" fill="#F6B47B"/>
<path d="M15.8621 23.7069V25.9024C15.8621 26.3932 15.602 26.8379 15.1938 27.0835C20.6898 28.0331 23.8312 24.0834 24.1166 23.7068H15.8621V23.7069Z" fill="#E2A071"/>
<path d="M29.6552 13.7931V12.4138C29.6552 10.5093 28.1113 8.96552 26.2069 8.96552H13.7931C11.8886 8.96552 10.3448 10.5094 10.3448 12.4138V13.7931C9.20217 13.7931 8.27588 14.7194 8.27588 15.8621C8.27588 17.0047 9.20217 17.931 10.3448 17.931V18.6207C10.3448 20.2912 11.3492 21.7978 12.8912 22.4403L17.3473 24.2971C18.1879 24.6473 19.0894 24.8276 19.9999 24.8276C20.9104 24.8276 21.8119 24.6473 22.6524 24.2971L27.1088 22.4403C28.6508 21.7978 29.6552 20.2912 29.6552 18.6207V17.931C30.7979 17.931 31.7242 17.0047 31.7242 15.8621C31.7242 14.7194 30.7979 13.7931 29.6552 13.7931Z" fill="#FDC88E"/>
<path d="M15.1726 16.5517C14.7933 16.5517 14.4829 16.2414 14.4829 15.8621V15.1724C14.4829 14.7931 14.7933 14.4828 15.1726 14.4828C15.5519 14.4828 15.8622 14.7931 15.8622 15.1724V15.8621C15.8622 16.2414 15.5519 16.5517 15.1726 16.5517Z" fill="#623F33"/>
<path d="M20.0001 21.3981C18.774 21.3981 17.6271 21.0964 16.8536 20.5701C16.5388 20.356 16.4569 19.9269 16.6714 19.6121C16.8852 19.2976 17.3146 19.2157 17.6294 19.4299C18.1716 19.7986 19.0579 20.0189 20.0001 20.0189C20.9424 20.0189 21.8287 19.7986 22.3708 19.4299C22.6863 19.2151 23.1147 19.2973 23.3288 19.6121C23.5433 19.9269 23.4615 20.356 23.1467 20.5701C22.3732 21.0964 21.2263 21.3981 20.0001 21.3981Z" fill="#E2A071"/>
<path d="M27.9168 28.1604L25.4351 32.1309C25.057 32.7358 24.394 33.1033 23.6807 33.1033H16.3189C15.6056 33.1033 14.9426 32.7358 14.5645 32.1309L12.0829 28.1604C11.8836 27.8415 11.4657 27.7411 11.1432 27.9345L8.8779 29.2937C8.54712 29.4922 8.44342 29.9235 8.6479 30.2506L11.7239 35.1723H28.2757L31.3517 30.2505C31.5562 29.9234 31.4525 29.4922 31.1217 29.2937L28.8563 27.9344C28.534 27.7411 28.116 27.8416 27.9168 28.1604Z" fill="#F23F44"/>
<path d="M28.2758 35.1724H11.7241V40H28.2758V35.1724Z" fill="#FF4F4F"/>
<path d="M13.9652 21.0106C13.4064 20.4115 13.1036 19.6209 13.1036 18.8016V11.4859C15.4995 13.165 18.8139 14.4781 25.0001 14.8276L24.3967 12.7586C24.3967 12.7586 20.1071 10.3471 18.0173 8.96552H13.7931C13.5567 8.96552 13.3264 8.99034 13.1035 9.03569V9.035C13.0504 9.04577 12.9979 9.05801 12.9457 9.0712C12.9409 9.07241 12.9359 9.07327 12.9311 9.07448C12.9298 9.07483 12.9288 9.07577 12.9275 9.07612C11.4423 9.46026 10.3448 10.8084 10.3448 12.4138V13.7931C9.20217 13.7931 8.27588 14.7194 8.27588 15.8621C8.27588 17.0047 9.20217 17.931 10.3448 17.931V18.6207C10.3448 20.2912 11.3492 21.7978 12.8912 22.4403L17.3473 24.2971C17.5654 24.3879 17.7879 24.4662 18.0134 24.534C16.0441 23.0934 14.7332 21.8341 13.9652 21.0106Z" fill="#F6B47B"/>
<path d="M24.8274 16.5517C24.448 16.5517 24.1377 16.2414 24.1377 15.8621V15.1724C24.1377 14.7931 24.448 14.4828 24.8274 14.4828C25.2067 14.4828 25.517 14.7931 25.517 15.1724V15.8621C25.517 16.2414 25.2067 16.5517 24.8274 16.5517Z" fill="#623F33"/>
<path d="M26.8965 13.7931L26.2068 12.4138C26.2068 12.4138 28.389 13.7905 29.7413 13.7905V8.62069H13.4614C16.0673 11.1156 19.3162 13.7931 26.8965 13.7931Z" fill="#9D6E48"/>
<path d="M26.8966 13.7931C23.9989 12.3297 22.1456 10.4885 21.0042 8.62069H13.4614C16.0674 11.1156 19.3162 13.7931 26.8966 13.7931Z" fill="#8D5F3D"/>
</svg>
