<svg width="28" height="40" viewBox="0 0 28 40" fill="none" xmlns="http://www.w3.org/2000/svg">
<path d="M27.0506 35.6889L26.9191 35.2383C26.8555 35.0206 26.6435 34.8872 26.4254 34.9149L26.2866 33.8738L25.9991 31.7173C25.9991 31.7172 25.9991 31.7172 25.9991 31.7171L25.9657 31.4665C25.8147 30.3336 25.1127 29.3495 23.9567 28.7715L22.6021 28.0942C22.3827 27.9846 22.2152 28.1257 22.0541 28.3049L19.0812 27.2111C18.518 27.0234 18.1381 26.4963 18.1381 25.9026V23.6783L21.1089 22.4404C22.6507 21.7978 23.6551 20.2912 23.6551 18.6207V12.4138C23.6551 10.5093 22.1112 7.5862 20.2068 7.5862H7.79303C5.88855 7.5862 4.34476 10.5093 4.34476 12.4138V18.6207C4.34476 20.2911 5.34915 21.7978 6.89114 22.4403L9.862 23.6782V25.9024C9.862 26.4961 9.48209 27.0232 8.9189 27.2109L5.94605 28.3047C5.78493 28.1255 5.61743 27.9843 5.39804 28.094L4.04338 28.7714C2.88735 29.3494 2.18545 30.3335 2.03441 31.4664L2.00105 31.7169C2.00105 31.717 2.00105 31.7171 2.00105 31.7172L1.71355 33.8736L1.57476 34.9147C1.35666 34.887 1.14467 35.0204 1.08105 35.2381L0.9495 35.6887C0.879069 35.93 1.0176 36.1826 1.2589 36.253L1.39122 36.2916L1.20916 37.6575C1.04347 38.8979 2.00829 40 3.25959 40H24.7403C25.9916 40 26.9565 38.8979 26.7911 37.6576L26.609 36.2917L26.7413 36.2531C26.9825 36.1828 27.121 35.9302 27.0506 35.6889Z" fill="#F6B47B"/>
<path d="M9.86212 23.5345V25.9025C9.86212 26.3933 9.60204 26.838 9.19385 27.0836C14.6899 28.0332 17.8312 23.911 18.1166 23.5345H9.86212Z" fill="#E2A071"/>
<path d="M21.1092 22.4403L16.6528 24.2972C15.8123 24.6473 14.9108 24.8277 14.0003 24.8277C13.0898 24.8277 12.1882 24.6473 11.3477 24.2972L6.89159 22.4404C5.34961 21.7978 4.34521 20.2912 4.34521 18.6207V12.4138C4.34521 10.5094 5.88909 7.5862 7.79349 7.5862H20.2073C22.1117 7.5862 23.6556 10.5094 23.6556 12.4138V18.6207C23.6556 20.2912 22.6512 21.7978 21.1092 22.4403Z" fill="#FDC88E"/>
<path d="M9.17257 16.5517C8.79326 16.5517 8.48291 16.2414 8.48291 15.8621V15.1724C8.48291 14.7931 8.79326 14.4828 9.17257 14.4828C9.55188 14.4828 9.86222 14.7931 9.86222 15.1724V15.8621C9.86222 16.2414 9.55188 16.5517 9.17257 16.5517Z" fill="#623F33"/>
<path d="M18.8278 16.5517C18.4485 16.5517 18.1382 16.2414 18.1382 15.8621V15.1724C18.1382 14.7931 18.4485 14.4828 18.8278 14.4828C19.2071 14.4828 19.5175 14.7931 19.5175 15.1724V15.8621C19.5175 16.2414 19.2071 16.5517 18.8278 16.5517Z" fill="#623F33"/>
<path d="M14.0001 21.3981C12.774 21.3981 11.6271 21.0964 10.8536 20.5701C10.5388 20.356 10.4569 19.9269 10.6714 19.6121C10.8852 19.2976 11.3146 19.2157 11.6294 19.4299C12.1716 19.7986 13.0579 20.0189 14.0001 20.0189C14.9424 20.0189 15.8287 19.7986 16.3708 19.4299C16.6863 19.2151 17.1147 19.2973 17.3288 19.6121C17.5433 19.9269 17.4615 20.356 17.1467 20.5701C16.3732 21.0964 15.2263 21.3981 14.0001 21.3981Z" fill="#E2A071"/>
<path d="M4.34521 13.2019V18.6208C4.34521 20.2913 5.34961 21.798 6.89159 22.4405L11.3476 24.2972C11.5657 24.3881 11.7883 24.4663 12.0137 24.5342C10.0444 23.0936 8.73357 21.8342 7.96547 21.0107C7.40668 20.4116 7.10383 19.621 7.10383 18.8017V14.9473C9.07797 14.2582 14.1853 11.995 14.2562 8.27608C14.2629 7.92461 14.2575 7.61125 14.242 7.33186C10.9962 11.7685 6.49961 12.9319 4.34521 13.2019Z" fill="#F6B47B"/>
<path d="M25.9396 22.939C25.9396 21.4777 24.7349 20.8602 24.7349 19.6158C24.7349 18.3714 26.3002 18.0366 26.3002 16.1711C26.3002 14.9241 25.7445 13.9559 25.3759 13.0636C27.4776 3.95457 19.5938 0 17.4482 0C15.2069 0 14 0.689655 14 0.689655C14 0.689655 12.7931 0 10.5517 0C8.40617 0 0.52238 3.95457 2.62402 13.0635C2.2554 13.9558 1.69971 14.924 1.69971 16.171C1.69971 18.0366 3.26505 18.3713 3.26505 19.6157C3.26505 20.8601 2.06031 21.4777 2.06031 22.9389C2.06031 24.4002 3.22066 25.1078 3.59764 26.2072C3.77005 26.71 3.56893 28.2184 3.56893 28.2184C3.56893 28.2184 4.79738 26.1915 4.15083 24.3295C3.50428 22.4675 4.25428 22.2672 4.84048 21.4541C5.7241 20.2284 5.60428 18.8534 4.88264 17.517C4.4166 16.6539 4.53928 15.8202 5.19247 15.2397C5.87996 14.6289 6.04117 13.5747 6.04212 13.5679C9.30712 12.6121 14 10.6972 14 7.58621C14 10.6972 18.6928 12.6121 21.9577 13.5679C21.9588 13.5746 22.12 14.6289 22.8074 15.2397C23.4606 15.8202 23.5832 16.6539 23.1172 17.517C22.3956 18.8534 22.2757 20.2285 23.1594 21.4541C23.7456 22.2672 24.4956 22.4675 23.849 24.3295C23.2025 26.1914 24.4309 28.2184 24.4309 28.2184C24.4309 28.2184 24.2298 26.7099 24.4022 26.2072C24.7793 25.1078 25.9396 24.4002 25.9396 22.939Z" fill="#6E4439"/>
<path d="M25.966 31.4667C25.815 30.3337 25.113 29.3496 23.9571 28.7717L22.6024 28.0943C22.352 27.9692 22.1692 28.1707 21.9864 28.3827C18.3109 32.644 14.0006 34.4833 14.0006 34.4833H14.0005H14.0004C14.0004 34.4833 9.69018 32.644 6.01467 28.3827C5.83182 28.1707 5.64898 27.9692 5.39863 28.0943L4.04398 28.7717C2.88794 29.3497 2.18605 30.3338 2.03501 31.4667L1.47363 35.6767C3.29536 36.304 6.41415 37.2416 6.41415 37.2416V40.0002H21.5866V37.2416C21.5866 37.2416 24.7054 36.304 26.5273 35.6767L25.966 31.4667Z" fill="#57B9DD"/>
<path d="M6.39684 37.0307C6.35468 36.2106 6.08089 35.4182 5.58632 34.7587L2.34865 30.4418C2.19236 30.7637 2.08253 31.1063 2.03443 31.4665L1.48779 35.5666L6.39684 37.0307Z" fill="#43A0C5"/>
<path d="M0.949501 35.689C0.87907 35.9303 1.0176 36.183 1.25881 36.2533L6.41398 37.7571V37.2415C6.41398 36.9157 6.36277 36.5966 6.28803 36.2835L1.64528 34.9292C1.40407 34.8588 1.15148 34.9973 1.08114 35.2385L0.949501 35.689Z" fill="#258CAC"/>
<path d="M21.6035 37.0307C21.6457 36.2106 21.9195 35.4182 22.414 34.7587L25.6517 30.4418C25.808 30.7637 25.9178 31.1063 25.9659 31.4665L26.5126 35.5666L21.6035 37.0307Z" fill="#43A0C5"/>
<path d="M27.0509 35.689C27.1214 35.9303 26.9828 36.183 26.7416 36.2533L21.5864 37.7571V37.2415C21.5864 36.9157 21.6376 36.5966 21.7124 36.2835L26.3551 34.9292C26.5963 34.8588 26.8489 34.9973 26.9193 35.2385L27.0509 35.689Z" fill="#258CAC"/>
<path d="M10.5517 0C8.40616 0 0.522467 3.95457 2.62402 13.0635C2.2554 13.9558 1.69971 14.924 1.69971 16.171C1.69971 18.0366 3.26505 18.3713 3.26505 19.6157C3.26505 20.8601 2.06031 21.4777 2.06031 22.9389C2.06031 24.4002 3.22065 25.1078 3.59764 26.2072C3.77005 26.71 3.56893 28.2184 3.56893 28.2184C3.56893 28.2184 4.79738 26.1915 4.15082 24.3295C3.50427 22.4675 4.25427 22.2672 4.84048 21.4541C5.7241 20.2284 5.60427 18.8534 4.88263 17.517C4.4166 16.6539 4.53927 15.8202 5.19246 15.2397C5.87996 14.6289 6.04117 13.5747 6.04212 13.5679L6.04143 13.5678C6.04168 13.5678 6.04186 13.5677 6.04212 13.5677C4.09384 4.60069 11.8613 0.69681 14 0.69V0.689655C14 0.689655 12.7931 0 10.5517 0Z" fill="#5E342E"/>
</svg>
